<svg width="568" height="42" viewBox="0 0 568 42" fill="none" xmlns="http://www.w3.org/2000/svg">
<rect width="42" height="42" rx="21" fill="#A0FFC0" fill-opacity="0.1"/>
<path d="M29 12V16M31 14H27M13 26V28M14 27H12M18.937 24.5C18.8477 24.1539 18.6673 23.8381 18.4146 23.5854C18.1619 23.3327 17.8461 23.1523 17.5 23.063L11.365 21.481C11.2603 21.4513 11.1682 21.3883 11.1026 21.3014C11.037 21.2146 11.0015 21.1088 11.0015 21C11.0015 20.8912 11.037 20.7854 11.1026 20.6986C11.1682 20.6118 11.2603 20.5487 11.365 20.519L17.5 18.936C17.846 18.8468 18.1617 18.6666 18.4144 18.414C18.6671 18.1615 18.8476 17.8459 18.937 17.5L20.519 11.365C20.5484 11.2599 20.6114 11.1673 20.6983 11.1014C20.7853 11.0355 20.8914 10.9998 21.0005 10.9998C21.1096 10.9998 21.2157 11.0355 21.3027 11.1014C21.3896 11.1673 21.4526 11.2599 21.482 11.365L23.063 17.5C23.1523 17.8461 23.3327 18.1619 23.5854 18.4146C23.8381 18.6673 24.1539 18.8477 24.5 18.937L30.635 20.518C30.7405 20.5471 30.8335 20.61 30.8998 20.6971C30.9661 20.7841 31.0021 20.8906 31.0021 21C31.0021 21.1094 30.9661 21.2159 30.8998 21.3029C30.8335 21.39 30.7405 21.4529 30.635 21.482L24.5 23.063C24.1539 23.1523 23.8381 23.3327 23.5854 23.5854C23.3327 23.8381 23.1523 24.1539 23.063 24.5L21.481 30.635C21.4516 30.7401 21.3886 30.8327 21.3017 30.8986C21.2147 30.9646 21.1086 31.0003 20.9995 31.0003C20.8904 31.0003 20.7843 30.9646 20.6973 30.8986C20.6104 30.8327 20.5474 30.7401 20.518 30.635L18.937 24.5Z" stroke="#A0FFC0" stroke-width="2" stroke-linecap="round" stroke-linejoin="round"/>
<path d="M60.264 26.526C60.264 26.284 60.352 25.976 60.506 25.58L65.324 14.206C65.83 13.062 66.6 12.49 67.656 12.49C68.734 12.49 69.504 13.062 69.966 14.206L74.696 25.404C74.85 25.8 74.938 26.13 74.938 26.416C74.938 27.406 74.256 28.11 73.266 28.11C72.452 28.11 71.902 27.692 71.594 26.834L70.758 24.766H64.312L63.498 26.812C63.168 27.67 62.64 28.11 61.892 28.11C60.946 28.11 60.264 27.428 60.264 26.526ZM67.546 16.384L65.302 22.104H69.768L67.546 16.384ZM88.924 16.406C90.442 16.406 91.718 16.978 92.796 18.1C93.874 19.222 94.402 20.608 94.402 22.258C94.402 23.908 93.852 25.316 92.752 26.482C91.652 27.648 90.332 28.22 88.814 28.22C87.428 28.22 86.284 27.714 85.404 26.724V30.046C85.404 30.948 84.722 31.63 83.82 31.63C82.874 31.63 82.214 30.992 82.214 30.046V18.012C82.214 17.132 82.808 16.516 83.688 16.516C84.546 16.516 85.162 17.132 85.162 18.012V18.276C86.108 17.022 87.362 16.406 88.924 16.406ZM86.13 24.436C86.702 25.008 87.406 25.294 88.242 25.294C89.078 25.294 89.782 25.008 90.332 24.436C90.904 23.864 91.19 23.16 91.19 22.324C91.19 21.488 90.904 20.784 90.332 20.212C89.782 19.64 89.078 19.354 88.242 19.354C87.406 19.354 86.702 19.64 86.13 20.212C85.58 20.784 85.294 21.488 85.294 22.324C85.294 23.16 85.58 23.864 86.13 24.436ZM96.2811 26.504V17.924C96.2811 17.11 96.8751 16.516 97.6891 16.516C98.5471 16.516 99.1191 17.11 99.1191 17.924L99.1411 18.848C99.8451 17.22 100.901 16.406 102.331 16.406C103.299 16.406 103.981 17.088 103.981 18.034C103.981 19.024 103.299 19.684 102.331 19.684C100.571 19.684 99.4711 20.806 99.4711 22.984V26.504C99.4711 27.45 98.8331 28.11 97.8871 28.11C96.9411 28.11 96.2811 27.45 96.2811 26.504ZM105.842 26.548C104.698 25.426 104.126 24.04 104.126 22.368C104.126 20.696 104.72 19.288 105.908 18.144C107.096 16.978 108.57 16.406 110.33 16.406C112.09 16.406 113.542 16.956 114.686 18.078C115.852 19.2 116.424 20.586 116.424 22.258C116.424 23.93 115.83 25.338 114.642 26.504C113.454 27.648 111.98 28.22 110.22 28.22C108.46 28.22 107.008 27.67 105.842 26.548ZM110.286 25.294C111.122 25.294 111.826 25.008 112.376 24.436C112.948 23.864 113.234 23.16 113.234 22.324C113.234 21.488 112.948 20.784 112.376 20.212C111.826 19.64 111.122 19.354 110.286 19.354C109.428 19.354 108.724 19.64 108.152 20.212C107.602 20.784 107.316 21.488 107.316 22.324C107.316 23.16 107.602 23.864 108.152 24.436C108.724 25.008 109.428 25.294 110.286 25.294ZM125.002 16.406C126.52 16.406 127.796 16.978 128.874 18.1C129.952 19.222 130.48 20.608 130.48 22.258C130.48 23.908 129.93 25.316 128.83 26.482C127.73 27.648 126.41 28.22 124.892 28.22C123.506 28.22 122.362 27.714 121.482 26.724V30.046C121.482 30.948 120.8 31.63 119.898 31.63C118.952 31.63 118.292 30.992 118.292 30.046V18.012C118.292 17.132 118.886 16.516 119.766 16.516C120.624 16.516 121.24 17.132 121.24 18.012V18.276C122.186 17.022 123.44 16.406 125.002 16.406ZM122.208 24.436C122.78 25.008 123.484 25.294 124.32 25.294C125.156 25.294 125.86 25.008 126.41 24.436C126.982 23.864 127.268 23.16 127.268 22.324C127.268 21.488 126.982 20.784 126.41 20.212C125.86 19.64 125.156 19.354 124.32 19.354C123.484 19.354 122.78 19.64 122.208 20.212C121.658 20.784 121.372 21.488 121.372 22.324C121.372 23.16 121.658 23.864 122.208 24.436ZM133.525 26.548C132.381 25.426 131.809 24.04 131.809 22.368C131.809 20.696 132.403 19.288 133.591 18.144C134.779 16.978 136.253 16.406 138.013 16.406C139.773 16.406 141.225 16.956 142.369 18.078C143.535 19.2 144.107 20.586 144.107 22.258C144.107 23.93 143.513 25.338 142.325 26.504C141.137 27.648 139.663 28.22 137.903 28.22C136.143 28.22 134.691 27.67 133.525 26.548ZM137.969 25.294C138.805 25.294 139.509 25.008 140.059 24.436C140.631 23.864 140.917 23.16 140.917 22.324C140.917 21.488 140.631 20.784 140.059 20.212C139.509 19.64 138.805 19.354 137.969 19.354C137.111 19.354 136.407 19.64 135.835 20.212C135.285 20.784 134.999 21.488 134.999 22.324C134.999 23.16 135.285 23.864 135.835 24.436C136.407 25.008 137.111 25.294 137.969 25.294ZM144.88 25.954C144.88 25.25 145.342 24.766 146.068 24.766C146.332 24.766 146.596 24.832 146.838 24.986C147.652 25.558 148.51 25.844 149.412 25.844C150.314 25.844 150.82 25.426 150.82 24.876C150.82 24.26 150.358 23.82 148.422 23.204C146.332 22.522 145.276 21.4 145.276 19.794C145.276 18.848 145.672 18.056 146.442 17.396C147.212 16.736 148.29 16.406 149.654 16.406C150.908 16.406 151.986 16.714 152.932 17.308C153.438 17.616 153.702 17.99 153.702 18.452C153.702 19.178 153.218 19.662 152.536 19.662C152.316 19.662 152.03 19.574 151.678 19.376C151.04 18.98 150.402 18.782 149.764 18.782C148.906 18.782 148.444 19.178 148.444 19.64C148.444 20.19 148.862 20.608 150.512 21.114C152.778 21.796 153.988 23.028 153.988 24.634C153.988 26.746 152.272 28.22 149.434 28.22C147.806 28.22 146.508 27.846 145.562 27.098C145.1 26.746 144.88 26.372 144.88 25.954ZM173.373 14.074V26.636C173.373 27.494 172.757 28.11 171.899 28.11C171.019 28.11 170.425 27.494 170.425 26.636V26.35C169.457 27.604 168.203 28.22 166.663 28.22C165.145 28.22 163.869 27.648 162.791 26.526C161.713 25.404 161.185 24.018 161.185 22.368C161.185 20.718 161.735 19.31 162.835 18.144C163.935 16.978 165.255 16.406 166.773 16.406C168.181 16.406 169.303 16.912 170.161 17.924V14.074C170.161 13.128 170.821 12.49 171.767 12.49C172.713 12.49 173.373 13.128 173.373 14.074ZM165.211 24.436C165.783 25.008 166.487 25.294 167.323 25.294C168.159 25.294 168.863 25.008 169.413 24.436C169.985 23.864 170.271 23.16 170.271 22.324C170.271 21.488 169.985 20.784 169.413 20.212C168.863 19.64 168.159 19.354 167.323 19.354C166.487 19.354 165.783 19.64 165.211 20.212C164.661 20.784 164.375 21.488 164.375 22.324C164.375 23.16 164.661 23.864 165.211 24.436ZM186.67 18.122V26.614C186.67 27.472 186.054 28.11 185.174 28.11C184.316 28.11 183.7 27.472 183.7 26.614V26.218C182.908 27.516 181.5 28.22 179.938 28.22C178.684 28.22 177.672 27.802 176.858 26.988C176.066 26.152 175.67 25.008 175.67 23.556V18.122C175.67 17.176 176.33 16.516 177.276 16.516C178.222 16.516 178.86 17.176 178.86 18.122V22.522C178.86 24.348 179.762 25.272 181.082 25.272C182.49 25.272 183.48 24.326 183.48 22.412V18.122C183.48 17.176 184.118 16.516 185.064 16.516C186.01 16.516 186.67 17.176 186.67 18.122ZM201.687 16.406C203.205 16.406 204.481 16.978 205.559 18.1C206.637 19.222 207.165 20.608 207.165 22.258C207.165 23.908 206.615 25.316 205.515 26.482C204.415 27.648 203.095 28.22 201.577 28.22C200.191 28.22 199.047 27.714 198.167 26.724V30.046C198.167 30.948 197.485 31.63 196.583 31.63C195.637 31.63 194.977 30.992 194.977 30.046V18.012C194.977 17.132 195.571 16.516 196.451 16.516C197.309 16.516 197.925 17.132 197.925 18.012V18.276C198.871 17.022 200.125 16.406 201.687 16.406ZM198.893 24.436C199.465 25.008 200.169 25.294 201.005 25.294C201.841 25.294 202.545 25.008 203.095 24.436C203.667 23.864 203.953 23.16 203.953 22.324C203.953 21.488 203.667 20.784 203.095 20.212C202.545 19.64 201.841 19.354 201.005 19.354C200.169 19.354 199.465 19.64 198.893 20.212C198.343 20.784 198.057 21.488 198.057 22.324C198.057 23.16 198.343 23.864 198.893 24.436ZM209.044 26.504V17.924C209.044 17.11 209.638 16.516 210.452 16.516C211.31 16.516 211.882 17.11 211.882 17.924L211.904 18.848C212.608 17.22 213.664 16.406 215.094 16.406C216.062 16.406 216.744 17.088 216.744 18.034C216.744 19.024 216.062 19.684 215.094 19.684C213.334 19.684 212.234 20.806 212.234 22.984V26.504C212.234 27.45 211.596 28.11 210.65 28.11C209.704 28.11 209.044 27.45 209.044 26.504ZM218.605 26.548C217.461 25.426 216.889 24.04 216.889 22.368C216.889 20.696 217.483 19.288 218.671 18.144C219.859 16.978 221.333 16.406 223.093 16.406C224.853 16.406 226.305 16.956 227.449 18.078C228.615 19.2 229.187 20.586 229.187 22.258C229.187 23.93 228.593 25.338 227.405 26.504C226.217 27.648 224.743 28.22 222.983 28.22C221.223 28.22 219.771 27.67 218.605 26.548ZM223.049 25.294C223.885 25.294 224.589 25.008 225.139 24.436C225.711 23.864 225.997 23.16 225.997 22.324C225.997 21.488 225.711 20.784 225.139 20.212C224.589 19.64 223.885 19.354 223.049 19.354C222.191 19.354 221.487 19.64 220.915 20.212C220.365 20.784 220.079 21.488 220.079 22.324C220.079 23.16 220.365 23.864 220.915 24.436C221.487 25.008 222.191 25.294 223.049 25.294ZM232.793 15.35C231.649 15.35 230.857 14.58 230.857 13.502C230.857 12.446 231.649 11.654 232.793 11.654C233.915 11.654 234.707 12.446 234.707 13.502C234.707 14.58 233.915 15.35 232.793 15.35ZM232.793 16.516C233.739 16.516 234.399 17.198 234.399 18.144V27.054C234.399 30.112 232.859 31.74 230.285 31.74C229.911 31.74 229.603 31.696 229.383 31.63C228.657 31.454 228.107 30.948 228.107 30.244C228.107 29.452 228.657 28.924 229.449 28.924C229.471 28.924 229.625 28.968 229.779 28.968C230.703 28.968 231.165 28.418 231.165 27.34V18.144C231.165 17.198 231.825 16.516 232.793 16.516ZM242.503 16.406C244.065 16.406 245.385 16.934 246.485 17.99C247.607 19.024 248.157 20.234 248.157 21.576C248.157 22.39 247.629 22.94 246.815 22.94H239.643C239.841 24.436 241.051 25.448 242.701 25.448C243.559 25.448 244.373 25.14 245.143 24.546C245.429 24.348 245.715 24.26 246.023 24.26C246.793 24.26 247.321 24.766 247.321 25.536C247.321 25.976 247.079 26.394 246.617 26.79C245.539 27.736 244.175 28.22 242.481 28.22C240.721 28.22 239.269 27.67 238.103 26.548C236.959 25.426 236.387 24.04 236.387 22.368C236.387 20.696 236.981 19.288 238.147 18.144C239.313 16.978 240.765 16.406 242.503 16.406ZM239.643 21.004H245.077C244.879 19.772 243.757 18.782 242.459 18.782C241.051 18.782 239.929 19.706 239.643 21.004ZM249.765 16.626H250.667V15.394C250.667 14.448 251.327 13.81 252.273 13.81C253.219 13.81 253.857 14.448 253.857 15.394V16.626H256.211C256.981 16.626 257.487 17.154 257.487 17.924C257.487 18.694 256.981 19.222 256.211 19.222H253.857V23.798C253.857 24.788 254.297 25.294 255.199 25.294C255.551 25.294 256.013 25.206 256.079 25.206C256.937 25.206 257.465 25.712 257.465 26.526C257.465 27.208 257.091 27.692 256.365 27.956C255.749 28.132 255.089 28.22 254.385 28.22C252.097 28.22 250.667 26.9 250.667 24.612V19.222H249.765C248.973 19.222 248.467 18.694 248.467 17.924C248.467 17.154 248.973 16.626 249.765 16.626Z" fill="white"/>
</svg>
