<svg width="606" height="94" viewBox="0 0 606 94" fill="none" xmlns="http://www.w3.org/2000/svg">
<g filter="url(#filter0_d_313_2079)">
<rect x="3" y="2" width="600" height="88" rx="10" fill="url(#paint0_linear_313_2079)" fill-opacity="0.2" shape-rendering="crispEdges"/>
<rect x="3.5" y="2.5" width="599" height="87" rx="9.5" stroke="white" stroke-opacity="0.16" shape-rendering="crispEdges"/>
<path d="M39 43V47M39 51H39.01M48.73 52L40.73 38C40.5556 37.6922 40.3026 37.4362 39.9969 37.2581C39.6913 37.08 39.3438 36.9861 38.99 36.9861C38.6362 36.9861 38.2888 37.08 37.9831 37.2581C37.6774 37.4362 37.4244 37.6922 37.25 38L29.25 52C29.0737 52.3054 28.9812 52.6519 28.982 53.0045C28.9828 53.3571 29.0768 53.7033 29.2545 54.0078C29.4321 54.3124 29.6872 54.5646 29.9937 54.7388C30.3002 54.9131 30.6474 55.0032 31 55H47C47.3509 54.9997 47.6955 54.907 47.9993 54.7313C48.303 54.5556 48.5552 54.3031 48.7305 53.9991C48.9058 53.6951 48.998 53.3504 48.998 52.9995C48.9979 52.6486 48.9055 52.3039 48.73 52Z" stroke="#FFEAAC" stroke-width="2" stroke-linecap="round" stroke-linejoin="round"/>
<path d="M71.216 29.794C71.216 29.596 71.288 29.344 71.414 29.02L75.356 19.714C75.77 18.778 76.4 18.31 77.264 18.31C78.146 18.31 78.776 18.778 79.154 19.714L83.024 28.876C83.15 29.2 83.222 29.47 83.222 29.704C83.222 30.514 82.664 31.09 81.854 31.09C81.188 31.09 80.738 30.748 80.486 30.046L79.802 28.354H74.528L73.862 30.028C73.592 30.73 73.16 31.09 72.548 31.09C71.774 31.09 71.216 30.532 71.216 29.794ZM77.174 21.496L75.338 26.176H78.992L77.174 21.496ZM89.8889 23.818H87.9629V27.562C87.9629 28.372 88.3229 28.786 89.0609 28.786C89.3489 28.786 89.7269 28.714 89.7809 28.714C90.4829 28.714 90.9149 29.128 90.9149 29.794C90.9149 30.352 90.6089 30.748 90.0149 30.964C89.5109 31.108 88.9709 31.18 88.3949 31.18C86.5229 31.18 85.3529 30.1 85.3529 28.228V23.818H84.6149C83.9669 23.818 83.5529 23.386 83.5529 22.756C83.5529 22.126 83.9669 21.694 84.6149 21.694H85.3529V20.686C85.3529 19.912 85.8929 19.39 86.6669 19.39C87.4409 19.39 87.9629 19.912 87.9629 20.686V21.694H89.8889C90.5189 21.694 90.9329 22.126 90.9329 22.756C90.9329 23.386 90.5189 23.818 89.8889 23.818ZM96.4589 28.714C97.1249 28.714 97.5929 29.128 97.5929 29.794C97.5929 30.352 97.2869 30.748 96.6749 30.964C96.1709 31.108 95.6309 31.18 95.0549 31.18C93.1829 31.18 92.0129 30.1 92.0129 28.228V20.686C92.0129 19.912 92.5529 19.39 93.3269 19.39C94.1009 19.39 94.6409 19.912 94.6409 20.686V21.694H96.5489C97.1789 21.694 97.5929 22.126 97.5929 22.756C97.5929 23.386 97.1789 23.818 96.5489 23.818H94.6409V27.562C94.6409 28.372 95.0009 28.786 95.7389 28.786C96.0089 28.786 96.3869 28.714 96.4589 28.714ZM103.503 21.514C104.781 21.514 105.861 21.946 106.761 22.81C107.679 23.656 108.129 24.646 108.129 25.744C108.129 26.41 107.697 26.86 107.031 26.86H101.163C101.325 28.084 102.315 28.912 103.665 28.912C104.367 28.912 105.033 28.66 105.663 28.174C105.897 28.012 106.131 27.94 106.383 27.94C107.013 27.94 107.445 28.354 107.445 28.984C107.445 29.344 107.247 29.686 106.869 30.01C105.987 30.784 104.871 31.18 103.485 31.18C102.045 31.18 100.857 30.73 99.9025 29.812C98.9665 28.894 98.4985 27.76 98.4985 26.392C98.4985 25.024 98.9845 23.872 99.9385 22.936C100.893 21.982 102.081 21.514 103.503 21.514ZM101.163 25.276H105.609C105.447 24.268 104.529 23.458 103.467 23.458C102.315 23.458 101.397 24.214 101.163 25.276ZM115.087 21.514C116.113 21.514 116.941 21.856 117.589 22.54C118.255 23.206 118.579 24.142 118.579 25.33V29.776C118.579 30.55 118.039 31.09 117.265 31.09C116.491 31.09 115.969 30.55 115.969 29.776V26.176C115.969 24.682 115.231 23.926 114.151 23.926C112.999 23.926 112.189 24.7 112.189 26.266V29.776C112.189 30.55 111.667 31.09 110.893 31.09C110.119 31.09 109.579 30.55 109.579 29.776V22.828C109.579 22.126 110.083 21.604 110.803 21.604C111.505 21.604 112.009 22.126 112.009 22.828V23.152C112.657 22.072 113.809 21.514 115.087 21.514ZM120.356 21.694H121.094V20.686C121.094 19.912 121.634 19.39 122.408 19.39C123.182 19.39 123.704 19.912 123.704 20.686V21.694H125.63C126.26 21.694 126.674 22.126 126.674 22.756C126.674 23.386 126.26 23.818 125.63 23.818H123.704V27.562C123.704 28.372 124.064 28.786 124.802 28.786C125.09 28.786 125.468 28.714 125.522 28.714C126.224 28.714 126.656 29.128 126.656 29.794C126.656 30.352 126.35 30.748 125.756 30.964C125.252 31.108 124.712 31.18 124.136 31.18C122.264 31.18 121.094 30.1 121.094 28.228V23.818H120.356C119.708 23.818 119.294 23.386 119.294 22.756C119.294 22.126 119.708 21.694 120.356 21.694ZM129.45 20.65C128.514 20.65 127.866 20.02 127.866 19.138C127.866 18.274 128.514 17.626 129.45 17.626C130.368 17.626 131.016 18.274 131.016 19.138C131.016 20.02 130.368 20.65 129.45 20.65ZM129.45 21.604C130.224 21.604 130.764 22.162 130.764 22.936V29.758C130.764 30.532 130.224 31.09 129.45 31.09C128.658 31.09 128.118 30.532 128.118 29.758V22.936C128.118 22.162 128.658 21.604 129.45 21.604ZM133.794 29.812C132.858 28.894 132.39 27.76 132.39 26.392C132.39 25.024 132.876 23.872 133.848 22.936C134.82 21.982 136.026 21.514 137.466 21.514C138.906 21.514 140.094 21.964 141.03 22.882C141.984 23.8 142.452 24.934 142.452 26.302C142.452 27.67 141.966 28.822 140.994 29.776C140.022 30.712 138.816 31.18 137.376 31.18C135.936 31.18 134.748 30.73 133.794 29.812ZM137.43 28.786C138.114 28.786 138.69 28.552 139.14 28.084C139.608 27.616 139.842 27.04 139.842 26.356C139.842 25.672 139.608 25.096 139.14 24.628C138.69 24.16 138.114 23.926 137.43 23.926C136.728 23.926 136.152 24.16 135.684 24.628C135.234 25.096 135 25.672 135 26.356C135 27.04 135.234 27.616 135.684 28.084C136.152 28.552 136.728 28.786 137.43 28.786ZM149.488 21.514C150.514 21.514 151.342 21.856 151.99 22.54C152.656 23.206 152.98 24.142 152.98 25.33V29.776C152.98 30.55 152.44 31.09 151.666 31.09C150.892 31.09 150.37 30.55 150.37 29.776V26.176C150.37 24.682 149.632 23.926 148.552 23.926C147.4 23.926 146.59 24.7 146.59 26.266V29.776C146.59 30.55 146.068 31.09 145.294 31.09C144.52 31.09 143.98 30.55 143.98 29.776V22.828C143.98 22.126 144.484 21.604 145.204 21.604C145.906 21.604 146.41 22.126 146.41 22.828V23.152C147.058 22.072 148.21 21.514 149.488 21.514Z" fill="#FFEAAC"/>
<path d="M77.672 42.64C79.048 42.64 80.232 43.008 81.224 43.76C81.56 44 81.72 44.272 81.72 44.608C81.72 45.104 81.336 45.456 80.872 45.456C80.664 45.456 80.456 45.376 80.248 45.232C79.48 44.64 78.616 44.336 77.64 44.336C76.504 44.336 75.56 44.72 74.792 45.504C74.024 46.288 73.64 47.248 73.64 48.4C73.64 49.552 74.024 50.512 74.792 51.296C75.56 52.08 76.504 52.464 77.64 52.464C78.68 52.464 79.592 52.128 80.344 51.456C80.568 51.28 80.792 51.184 81 51.184C81.496 51.184 81.848 51.52 81.848 52.016C81.848 52.288 81.736 52.528 81.512 52.736C80.536 53.68 79.224 54.16 77.608 54.16C75.96 54.16 74.584 53.616 73.464 52.512C72.36 51.408 71.8 50.048 71.8 48.432C71.8 46.816 72.36 45.44 73.496 44.32C74.632 43.2 76.024 42.64 77.672 42.64ZM86.9578 45.632C88.0458 45.632 88.9898 46.016 89.7738 46.768C90.5578 47.52 90.9578 48.368 90.9578 49.344C90.9578 49.856 90.6858 50.16 90.1898 50.16H84.3658C84.4458 51.632 85.5658 52.624 87.0378 52.624C87.3898 52.624 87.7098 52.56 88.0138 52.448C88.6378 52.208 88.8298 52.048 89.2298 51.664C89.4058 51.52 89.5818 51.456 89.7418 51.456C90.1738 51.456 90.4618 51.76 90.4618 52.16C90.4618 52.4 90.3338 52.624 90.0938 52.848C89.2778 53.728 88.2218 54.16 86.9258 54.16C85.6778 54.16 84.6378 53.76 83.8058 52.944C82.9898 52.128 82.5738 51.12 82.5738 49.92C82.5738 48.72 82.9898 47.696 83.8378 46.88C84.6858 46.048 85.7258 45.632 86.9578 45.632ZM84.3818 49.04H89.2778C89.1818 48.448 88.9098 47.968 88.4618 47.568C88.0138 47.168 87.5018 46.96 86.9258 46.96C85.6458 46.96 84.6218 47.824 84.3818 49.04ZM101.202 45.632C102.306 45.632 103.266 46.032 104.05 46.848C104.834 47.664 105.234 48.656 105.234 49.856C105.234 51.056 104.834 52.064 104.018 52.912C103.218 53.744 102.258 54.16 101.138 54.16C99.9383 54.16 98.9943 53.696 98.3063 52.752V55.776C98.3063 56.288 97.9543 56.64 97.4263 56.64C96.9143 56.64 96.5463 56.288 96.5463 55.776V46.528C96.5463 46.032 96.8663 45.712 97.3623 45.712C97.8263 45.712 98.1623 46.032 98.1623 46.528V47.248C98.8823 46.176 99.9063 45.632 101.202 45.632ZM103.474 49.888C103.474 49.136 103.218 48.512 102.722 48.016C102.226 47.504 101.602 47.248 100.85 47.248C100.098 47.248 99.4743 47.504 98.9783 48.016C98.4823 48.512 98.2263 49.136 98.2263 49.888C98.2263 50.64 98.4823 51.28 98.9783 51.792C99.4743 52.288 100.098 52.544 100.85 52.544C101.602 52.544 102.226 52.288 102.722 51.792C103.218 51.28 103.474 50.64 103.474 49.888ZM106.839 53.2V46.48C106.743 45.472 108.503 45.472 108.407 46.48L108.439 47.504C108.967 46.304 109.911 45.632 111.063 45.632C111.591 45.632 111.975 46 111.975 46.512C111.975 47.04 111.591 47.424 111.063 47.424C109.527 47.424 108.599 48.416 108.599 50.336V53.2C108.599 53.712 108.247 54.08 107.719 54.08C107.207 54.08 106.839 53.712 106.839 53.2ZM113.447 52.944C112.631 52.128 112.215 51.12 112.215 49.92C112.215 48.72 112.631 47.696 113.479 46.88C114.327 46.048 115.383 45.632 116.631 45.632C117.879 45.632 118.919 46.032 119.735 46.848C120.567 47.648 120.983 48.656 120.983 49.856C120.983 51.056 120.551 52.08 119.703 52.912C118.855 53.744 117.815 54.16 116.567 54.16C115.319 54.16 114.279 53.76 113.447 52.944ZM113.975 49.888C113.975 50.64 114.231 51.28 114.727 51.792C115.223 52.288 115.847 52.544 116.599 52.544C117.351 52.544 117.975 52.288 118.471 51.792C118.967 51.28 119.223 50.64 119.223 49.888C119.223 49.136 118.967 48.512 118.471 48.016C117.975 47.504 117.351 47.248 116.599 47.248C115.847 47.248 115.223 47.504 114.727 48.016C114.231 48.512 113.975 49.136 113.975 49.888ZM123.558 44.56C122.918 44.56 122.438 44.096 122.438 43.472C122.438 42.848 122.918 42.4 123.558 42.4C124.214 42.4 124.678 42.848 124.678 43.472C124.678 44.096 124.214 44.56 123.558 44.56ZM124.454 46.592V53.648C124.454 55.632 123.398 56.72 121.734 56.72C121.462 56.72 121.222 56.688 121.046 56.64C120.566 56.528 120.326 56.256 120.326 55.856C120.326 55.424 120.63 55.136 121.062 55.136C121.11 55.136 121.286 55.184 121.478 55.184C122.262 55.184 122.662 54.72 122.662 53.808V46.592C122.662 46.08 123.03 45.712 123.558 45.712C124.086 45.712 124.454 46.08 124.454 46.592ZM130.513 45.632C131.601 45.632 132.545 46.016 133.329 46.768C134.113 47.52 134.513 48.368 134.513 49.344C134.513 49.856 134.241 50.16 133.745 50.16H127.921C128.001 51.632 129.121 52.624 130.593 52.624C130.945 52.624 131.265 52.56 131.569 52.448C132.193 52.208 132.385 52.048 132.785 51.664C132.961 51.52 133.137 51.456 133.297 51.456C133.729 51.456 134.017 51.76 134.017 52.16C134.017 52.4 133.889 52.624 133.649 52.848C132.833 53.728 131.777 54.16 130.481 54.16C129.233 54.16 128.193 53.76 127.361 52.944C126.545 52.128 126.129 51.12 126.129 49.92C126.129 48.72 126.545 47.696 127.393 46.88C128.241 46.048 129.281 45.632 130.513 45.632ZM127.937 49.04H132.833C132.737 48.448 132.465 47.968 132.017 47.568C131.569 47.168 131.057 46.96 130.481 46.96C129.201 46.96 128.177 47.824 127.937 49.04ZM135.618 45.792H136.578V44.544C136.578 44.032 136.946 43.68 137.458 43.68C137.986 43.68 138.338 44.032 138.338 44.544V45.792H140.594C141.522 45.696 141.522 47.296 140.594 47.2H138.338V51.152C138.338 52.08 138.754 52.544 139.586 52.544C139.986 52.544 140.466 52.432 140.514 52.432C140.962 52.432 141.282 52.704 141.282 53.152C141.282 53.536 141.074 53.808 140.658 53.952C140.29 54.096 139.794 54.16 139.186 54.16C137.57 54.16 136.578 53.232 136.578 51.552V47.2H135.618C134.674 47.296 134.674 45.696 135.618 45.792ZM150.596 45.632C151.684 45.632 152.628 46.016 153.412 46.768C154.196 47.52 154.596 48.368 154.596 49.344C154.596 49.856 154.324 50.16 153.828 50.16H148.004C148.084 51.632 149.204 52.624 150.676 52.624C151.028 52.624 151.348 52.56 151.652 52.448C152.276 52.208 152.468 52.048 152.868 51.664C153.044 51.52 153.22 51.456 153.38 51.456C153.812 51.456 154.1 51.76 154.1 52.16C154.1 52.4 153.972 52.624 153.732 52.848C152.916 53.728 151.86 54.16 150.564 54.16C149.316 54.16 148.276 53.76 147.444 52.944C146.628 52.128 146.212 51.12 146.212 49.92C146.212 48.72 146.628 47.696 147.476 46.88C148.324 46.048 149.364 45.632 150.596 45.632ZM148.02 49.04H152.916C152.82 48.448 152.548 47.968 152.1 47.568C151.652 47.168 151.14 46.96 150.564 46.96C149.284 46.96 148.26 47.824 148.02 49.04ZM155.437 52.688C155.437 52.288 155.709 52.016 156.109 52.016C156.269 52.016 156.429 52.064 156.573 52.16C157.229 52.592 157.917 52.816 158.605 52.816C159.485 52.816 160.013 52.384 160.013 51.824C160.013 51.2 159.597 50.784 158.061 50.352C156.573 49.904 155.741 49.056 155.741 47.968C155.741 46.672 156.877 45.632 158.749 45.632C159.597 45.632 160.365 45.84 161.085 46.272C161.389 46.464 161.533 46.688 161.533 46.944C161.533 47.344 161.261 47.616 160.877 47.616C160.733 47.616 160.557 47.568 160.365 47.456C159.869 47.136 159.357 46.976 158.797 46.976C157.965 46.976 157.485 47.376 157.485 47.84C157.485 48.368 157.885 48.768 159.181 49.136C160.893 49.632 161.741 50.464 161.741 51.648C161.741 53.104 160.557 54.16 158.589 54.16C157.485 54.16 156.573 53.888 155.853 53.36C155.581 53.152 155.437 52.928 155.437 52.688ZM163.024 45.792H163.984V44.544C163.984 44.032 164.352 43.68 164.864 43.68C165.392 43.68 165.744 44.032 165.744 44.544V45.792H168C168.928 45.696 168.928 47.296 168 47.2H165.744V51.152C165.744 52.08 166.16 52.544 166.992 52.544C167.392 52.544 167.872 52.432 167.92 52.432C168.368 52.432 168.688 52.704 168.688 53.152C168.688 53.536 168.48 53.808 168.064 53.952C167.696 54.096 167.2 54.16 166.592 54.16C164.976 54.16 163.984 53.232 163.984 51.552V47.2H163.024C162.08 47.296 162.08 45.696 163.024 45.792ZM178.003 45.632C179.091 45.632 180.035 46.016 180.819 46.768C181.603 47.52 182.003 48.368 182.003 49.344C182.003 49.856 181.731 50.16 181.235 50.16H175.411C175.491 51.632 176.611 52.624 178.083 52.624C178.435 52.624 178.755 52.56 179.059 52.448C179.683 52.208 179.875 52.048 180.275 51.664C180.451 51.52 180.627 51.456 180.787 51.456C181.219 51.456 181.507 51.76 181.507 52.16C181.507 52.4 181.379 52.624 181.139 52.848C180.323 53.728 179.267 54.16 177.971 54.16C176.723 54.16 175.683 53.76 174.851 52.944C174.035 52.128 173.619 51.12 173.619 49.92C173.619 48.72 174.035 47.696 174.883 46.88C175.731 46.048 176.771 45.632 178.003 45.632ZM175.427 49.04H180.323C180.227 48.448 179.955 47.968 179.507 47.568C179.059 47.168 178.547 46.96 177.971 46.96C176.691 46.96 175.667 47.824 175.427 49.04ZM188.092 45.632C189.004 45.632 189.756 45.936 190.348 46.56C190.94 47.184 191.244 48.048 191.244 49.184V53.2C191.244 53.712 190.892 54.08 190.364 54.08C189.852 54.08 189.484 53.712 189.484 53.2V49.744C189.484 48.08 188.668 47.248 187.516 47.248C186.236 47.248 185.324 48.112 185.324 49.904V53.2C185.324 53.712 184.972 54.08 184.444 54.08C183.932 54.08 183.564 53.712 183.564 53.2V46.528C183.452 45.456 185.308 45.456 185.196 46.528V47.264C185.772 46.192 186.86 45.632 188.092 45.632ZM201.18 45.632C202.188 45.632 203.036 45.904 203.74 46.464C204.044 46.672 204.204 46.928 204.204 47.232C204.204 47.696 203.852 48.048 203.388 48.048C203.228 48.048 203.052 47.984 202.844 47.84C202.332 47.44 201.772 47.248 201.148 47.248C200.396 47.248 199.772 47.504 199.276 48.016C198.78 48.512 198.524 49.136 198.524 49.888C198.524 50.64 198.78 51.28 199.276 51.792C199.772 52.288 200.396 52.544 201.148 52.544C201.836 52.544 202.428 52.32 202.94 51.872C203.148 51.728 203.324 51.664 203.468 51.664C203.932 51.664 204.252 52 204.252 52.464C204.252 52.736 204.124 52.96 203.884 53.168C203.132 53.824 202.204 54.16 201.116 54.16C199.868 54.16 198.828 53.76 197.996 52.944C197.18 52.128 196.764 51.12 196.764 49.92C196.764 48.72 197.18 47.696 198.028 46.88C198.876 46.048 199.932 45.632 201.18 45.632ZM206.133 52.944C205.317 52.128 204.901 51.12 204.901 49.92C204.901 48.72 205.317 47.696 206.165 46.88C207.013 46.048 208.069 45.632 209.317 45.632C210.565 45.632 211.605 46.032 212.421 46.848C213.253 47.648 213.669 48.656 213.669 49.856C213.669 51.056 213.237 52.08 212.389 52.912C211.541 53.744 210.501 54.16 209.253 54.16C208.005 54.16 206.965 53.76 206.133 52.944ZM206.661 49.888C206.661 50.64 206.917 51.28 207.413 51.792C207.909 52.288 208.533 52.544 209.285 52.544C210.037 52.544 210.661 52.288 211.157 51.792C211.653 51.28 211.909 50.64 211.909 49.888C211.909 49.136 211.653 48.512 211.157 48.016C210.661 47.504 210.037 47.248 209.285 47.248C208.533 47.248 207.909 47.504 207.413 48.016C206.917 48.512 206.661 49.136 206.661 49.888ZM221.956 45.712C222.484 45.712 222.836 46.064 222.836 46.592V53.264C222.836 53.728 222.484 54.08 222.02 54.08C221.556 54.08 221.204 53.728 221.204 53.264V52.544C220.628 53.616 219.54 54.16 218.308 54.16C217.396 54.16 216.628 53.856 216.036 53.232C215.444 52.608 215.156 51.728 215.156 50.608V46.592C215.156 46.064 215.524 45.712 216.036 45.712C216.564 45.712 216.916 46.064 216.916 46.592V50.032C216.916 51.712 217.732 52.544 218.884 52.544C220.18 52.544 221.076 51.68 221.076 49.872V46.592C221.076 46.064 221.444 45.712 221.956 45.712ZM224.92 53.2V46.48C224.824 45.472 226.584 45.472 226.488 46.48L226.52 47.504C227.048 46.304 227.992 45.632 229.144 45.632C229.672 45.632 230.056 46 230.056 46.512C230.056 47.04 229.672 47.424 229.144 47.424C227.608 47.424 226.68 48.416 226.68 50.336V53.2C226.68 53.712 226.328 54.08 225.8 54.08C225.288 54.08 224.92 53.712 224.92 53.2ZM230.462 52.688C230.462 52.288 230.734 52.016 231.134 52.016C231.294 52.016 231.454 52.064 231.598 52.16C232.254 52.592 232.942 52.816 233.63 52.816C234.51 52.816 235.038 52.384 235.038 51.824C235.038 51.2 234.622 50.784 233.086 50.352C231.598 49.904 230.766 49.056 230.766 47.968C230.766 46.672 231.902 45.632 233.774 45.632C234.622 45.632 235.39 45.84 236.11 46.272C236.414 46.464 236.558 46.688 236.558 46.944C236.558 47.344 236.286 47.616 235.902 47.616C235.758 47.616 235.582 47.568 235.39 47.456C234.894 47.136 234.382 46.976 233.822 46.976C232.99 46.976 232.51 47.376 232.51 47.84C232.51 48.368 232.91 48.768 234.206 49.136C235.918 49.632 236.766 50.464 236.766 51.648C236.766 53.104 235.582 54.16 233.614 54.16C232.51 54.16 231.598 53.888 230.878 53.36C230.606 53.152 230.462 52.928 230.462 52.688ZM249.721 42.72C250.233 42.72 250.601 43.072 250.601 43.584V53.264C250.601 53.728 250.249 54.08 249.785 54.08C249.321 54.08 248.985 53.76 248.985 53.264V52.544C248.233 53.616 247.209 54.16 245.945 54.16C244.841 54.16 243.881 53.76 243.097 52.944C242.313 52.128 241.913 51.12 241.913 49.92C241.913 48.72 242.313 47.712 243.113 46.88C243.913 46.048 244.873 45.632 246.009 45.632C247.241 45.632 248.185 46.096 248.841 47.04V43.584C248.841 43.072 249.193 42.72 249.721 42.72ZM248.921 49.888C248.921 49.136 248.665 48.512 248.169 48.016C247.673 47.504 247.049 47.248 246.297 47.248C245.545 47.248 244.921 47.504 244.425 48.016C243.929 48.512 243.673 49.136 243.673 49.888C243.673 50.64 243.929 51.28 244.425 51.792C244.921 52.288 245.545 52.544 246.297 52.544C247.049 52.544 247.673 52.288 248.169 51.792C248.665 51.28 248.921 50.64 248.921 49.888ZM256.59 45.632C257.678 45.632 258.622 46.016 259.406 46.768C260.19 47.52 260.59 48.368 260.59 49.344C260.59 49.856 260.318 50.16 259.822 50.16H253.998C254.078 51.632 255.198 52.624 256.67 52.624C257.022 52.624 257.342 52.56 257.646 52.448C258.27 52.208 258.462 52.048 258.862 51.664C259.038 51.52 259.214 51.456 259.374 51.456C259.806 51.456 260.094 51.76 260.094 52.16C260.094 52.4 259.966 52.624 259.726 52.848C258.91 53.728 257.854 54.16 256.558 54.16C255.31 54.16 254.27 53.76 253.438 52.944C252.622 52.128 252.206 51.12 252.206 49.92C252.206 48.72 252.622 47.696 253.47 46.88C254.318 46.048 255.358 45.632 256.59 45.632ZM254.014 49.04H258.91C258.814 48.448 258.542 47.968 258.094 47.568C257.646 47.168 257.134 46.96 256.558 46.96C255.278 46.96 254.254 47.824 254.014 49.04ZM273.507 42.72C274.019 42.72 274.387 43.072 274.387 43.584V53.264C274.387 53.728 274.035 54.08 273.571 54.08C273.107 54.08 272.771 53.76 272.771 53.264V52.544C272.019 53.616 270.995 54.16 269.731 54.16C268.627 54.16 267.667 53.76 266.883 52.944C266.099 52.128 265.699 51.12 265.699 49.92C265.699 48.72 266.099 47.712 266.899 46.88C267.699 46.048 268.659 45.632 269.795 45.632C271.027 45.632 271.971 46.096 272.627 47.04V43.584C272.627 43.072 272.979 42.72 273.507 42.72ZM272.707 49.888C272.707 49.136 272.451 48.512 271.955 48.016C271.459 47.504 270.835 47.248 270.083 47.248C269.331 47.248 268.707 47.504 268.211 48.016C267.715 48.512 267.459 49.136 267.459 49.888C267.459 50.64 267.715 51.28 268.211 51.792C268.707 52.288 269.331 52.544 270.083 52.544C270.835 52.544 271.459 52.288 271.955 51.792C272.451 51.28 272.707 50.64 272.707 49.888ZM280.072 43.728L280.984 42.352C281.192 42.112 281.4 42 281.624 42C282.024 42 282.328 42.32 282.328 42.72C282.328 42.976 282.2 43.216 281.96 43.424L280.888 44.688C280.744 44.816 280.6 44.88 280.456 44.88C279.928 44.88 279.608 44.256 280.072 43.728ZM280.376 45.632C281.464 45.632 282.408 46.016 283.192 46.768C283.976 47.52 284.376 48.368 284.376 49.344C284.376 49.856 284.104 50.16 283.608 50.16H277.784C277.864 51.632 278.984 52.624 280.456 52.624C280.808 52.624 281.128 52.56 281.432 52.448C282.056 52.208 282.248 52.048 282.648 51.664C282.824 51.52 283 51.456 283.16 51.456C283.592 51.456 283.88 51.76 283.88 52.16C283.88 52.4 283.752 52.624 283.512 52.848C282.696 53.728 281.64 54.16 280.344 54.16C279.096 54.16 278.056 53.76 277.224 52.944C276.408 52.128 275.992 51.12 275.992 49.92C275.992 48.72 276.408 47.696 277.256 46.88C278.104 46.048 279.144 45.632 280.376 45.632ZM277.8 49.04H282.696C282.6 48.448 282.328 47.968 281.88 47.568C281.432 47.168 280.92 46.96 280.344 46.96C279.064 46.96 278.04 47.824 277.8 49.04ZM284.744 46.592C284.744 46.064 285.112 45.712 285.64 45.712C286.04 45.712 286.328 45.936 286.504 46.4L288.712 51.776L290.92 46.368C291.08 45.936 291.368 45.712 291.784 45.712C292.248 45.712 292.616 46.08 292.616 46.544C292.616 46.688 292.584 46.832 292.52 46.976L289.864 53.152C289.608 53.776 289.208 54.08 288.664 54.08C288.136 54.08 287.736 53.776 287.48 53.152L284.856 47.056C284.776 46.912 284.744 46.752 284.744 46.592ZM297.415 45.632C298.503 45.632 299.447 46.016 300.231 46.768C301.015 47.52 301.415 48.368 301.415 49.344C301.415 49.856 301.143 50.16 300.647 50.16H294.823C294.903 51.632 296.023 52.624 297.495 52.624C297.847 52.624 298.167 52.56 298.471 52.448C299.095 52.208 299.287 52.048 299.687 51.664C299.863 51.52 300.039 51.456 300.199 51.456C300.631 51.456 300.919 51.76 300.919 52.16C300.919 52.4 300.791 52.624 300.551 52.848C299.735 53.728 298.679 54.16 297.383 54.16C296.135 54.16 295.095 53.76 294.263 52.944C293.447 52.128 293.031 51.12 293.031 49.92C293.031 48.72 293.447 47.696 294.295 46.88C295.143 46.048 296.183 45.632 297.415 45.632ZM294.839 49.04H299.735C299.639 48.448 299.367 47.968 298.919 47.568C298.471 47.168 297.959 46.96 297.383 46.96C296.103 46.96 295.079 47.824 294.839 49.04ZM304.848 43.6V53.168C304.848 53.696 304.48 54.08 303.952 54.08C303.424 54.08 303.056 53.696 303.056 53.168V43.6C303.056 43.088 303.424 42.72 303.952 42.72C304.48 42.72 304.848 43.088 304.848 43.6ZM307.756 52.944C306.94 52.128 306.524 51.12 306.524 49.92C306.524 48.72 306.94 47.696 307.788 46.88C308.636 46.048 309.692 45.632 310.94 45.632C312.188 45.632 313.228 46.032 314.044 46.848C314.876 47.648 315.292 48.656 315.292 49.856C315.292 51.056 314.86 52.08 314.012 52.912C313.164 53.744 312.124 54.16 310.876 54.16C309.628 54.16 308.588 53.76 307.756 52.944ZM308.284 49.888C308.284 50.64 308.54 51.28 309.036 51.792C309.532 52.288 310.156 52.544 310.908 52.544C311.66 52.544 312.284 52.288 312.78 51.792C313.276 51.28 313.532 50.64 313.532 49.888C313.532 49.136 313.276 48.512 312.78 48.016C312.284 47.504 311.66 47.248 310.908 47.248C310.156 47.248 309.532 47.504 309.036 48.016C308.54 48.512 308.284 49.136 308.284 49.888ZM321.547 45.632C322.651 45.632 323.611 46.032 324.395 46.848C325.179 47.664 325.579 48.656 325.579 49.856C325.579 51.056 325.179 52.064 324.363 52.912C323.563 53.744 322.603 54.16 321.483 54.16C320.283 54.16 319.339 53.696 318.651 52.752V55.776C318.651 56.288 318.299 56.64 317.771 56.64C317.259 56.64 316.891 56.288 316.891 55.776V46.528C316.891 46.032 317.211 45.712 317.707 45.712C318.171 45.712 318.507 46.032 318.507 46.528V47.248C319.227 46.176 320.251 45.632 321.547 45.632ZM323.819 49.888C323.819 49.136 323.563 48.512 323.067 48.016C322.571 47.504 321.947 47.248 321.195 47.248C320.443 47.248 319.819 47.504 319.323 48.016C318.827 48.512 318.571 49.136 318.571 49.888C318.571 50.64 318.827 51.28 319.323 51.792C319.819 52.288 320.443 52.544 321.195 52.544C321.947 52.544 322.571 52.288 323.067 51.792C323.563 51.28 323.819 50.64 323.819 49.888ZM331.84 45.632C332.944 45.632 333.904 46.032 334.688 46.848C335.472 47.664 335.872 48.656 335.872 49.856C335.872 51.056 335.472 52.064 334.656 52.912C333.856 53.744 332.896 54.16 331.776 54.16C330.576 54.16 329.632 53.696 328.944 52.752V55.776C328.944 56.288 328.592 56.64 328.064 56.64C327.552 56.64 327.184 56.288 327.184 55.776V46.528C327.184 46.032 327.504 45.712 328 45.712C328.464 45.712 328.8 46.032 328.8 46.528V47.248C329.52 46.176 330.544 45.632 331.84 45.632ZM334.112 49.888C334.112 49.136 333.856 48.512 333.36 48.016C332.864 47.504 332.24 47.248 331.488 47.248C330.736 47.248 330.112 47.504 329.616 48.016C329.12 48.512 328.864 49.136 328.864 49.888C328.864 50.64 329.12 51.28 329.616 51.792C330.112 52.288 330.736 52.544 331.488 52.544C332.24 52.544 332.864 52.288 333.36 51.792C333.856 51.28 334.112 50.64 334.112 49.888ZM341.381 45.632C342.469 45.632 343.413 46.016 344.197 46.768C344.981 47.52 345.381 48.368 345.381 49.344C345.381 49.856 345.109 50.16 344.613 50.16H338.789C338.869 51.632 339.989 52.624 341.461 52.624C341.813 52.624 342.133 52.56 342.437 52.448C343.061 52.208 343.253 52.048 343.653 51.664C343.829 51.52 344.005 51.456 344.165 51.456C344.597 51.456 344.885 51.76 344.885 52.16C344.885 52.4 344.757 52.624 344.517 52.848C343.701 53.728 342.645 54.16 341.349 54.16C340.101 54.16 339.061 53.76 338.229 52.944C337.413 52.128 336.997 51.12 336.997 49.92C336.997 48.72 337.413 47.696 338.261 46.88C339.109 46.048 340.149 45.632 341.381 45.632ZM338.805 49.04H343.701C343.605 48.448 343.333 47.968 342.885 47.568C342.437 47.168 341.925 46.96 341.349 46.96C340.069 46.96 339.045 47.824 338.805 49.04ZM357.15 45.632C358.03 45.632 358.766 45.936 359.342 46.544C359.934 47.152 360.222 48.016 360.222 49.136V53.2C360.222 53.712 359.87 54.08 359.342 54.08C358.83 54.08 358.462 53.712 358.462 53.2V49.712C358.462 48.064 357.678 47.248 356.574 47.248C355.374 47.248 354.478 48.032 354.462 49.696V53.2C354.462 53.712 354.11 54.08 353.582 54.08C353.07 54.08 352.702 53.712 352.702 53.2V49.712C352.702 48.064 351.918 47.248 350.814 47.248C349.614 47.248 348.718 48.032 348.702 49.696V53.2C348.702 53.712 348.35 54.08 347.822 54.08C347.31 54.08 346.942 53.712 346.942 53.2V46.528C346.83 45.456 348.686 45.456 348.574 46.528V47.232C349.134 46.192 350.19 45.632 351.39 45.632C352.67 45.632 353.726 46.32 354.19 47.552C354.702 46.288 355.822 45.632 357.15 45.632ZM366.092 45.632C367.18 45.632 368.124 46.016 368.908 46.768C369.692 47.52 370.092 48.368 370.092 49.344C370.092 49.856 369.82 50.16 369.324 50.16H363.5C363.58 51.632 364.7 52.624 366.172 52.624C366.524 52.624 366.844 52.56 367.148 52.448C367.772 52.208 367.964 52.048 368.364 51.664C368.54 51.52 368.716 51.456 368.876 51.456C369.308 51.456 369.596 51.76 369.596 52.16C369.596 52.4 369.468 52.624 369.228 52.848C368.412 53.728 367.356 54.16 366.06 54.16C364.812 54.16 363.772 53.76 362.94 52.944C362.124 52.128 361.708 51.12 361.708 49.92C361.708 48.72 362.124 47.696 362.972 46.88C363.82 46.048 364.86 45.632 366.092 45.632ZM363.516 49.04H368.412C368.316 48.448 368.044 47.968 367.596 47.568C367.148 47.168 366.636 46.96 366.06 46.96C364.78 46.96 363.756 47.824 363.516 49.04ZM376.181 45.632C377.093 45.632 377.845 45.936 378.437 46.56C379.029 47.184 379.333 48.048 379.333 49.184V53.2C379.333 53.712 378.981 54.08 378.453 54.08C377.941 54.08 377.573 53.712 377.573 53.2V49.744C377.573 48.08 376.757 47.248 375.605 47.248C374.325 47.248 373.413 48.112 373.413 49.904V53.2C373.413 53.712 373.061 54.08 372.533 54.08C372.021 54.08 371.653 53.712 371.653 53.2V46.528C371.541 45.456 373.397 45.456 373.285 46.528V47.264C373.861 46.192 374.949 45.632 376.181 45.632ZM380.833 45.792H381.793V44.544C381.793 44.032 382.161 43.68 382.673 43.68C383.201 43.68 383.553 44.032 383.553 44.544V45.792H385.809C386.737 45.696 386.737 47.296 385.809 47.2H383.553V51.152C383.553 52.08 383.969 52.544 384.801 52.544C385.201 52.544 385.681 52.432 385.729 52.432C386.177 52.432 386.497 52.704 386.497 53.152C386.497 53.536 386.289 53.808 385.873 53.952C385.505 54.096 385.009 54.16 384.401 54.16C382.785 54.16 381.793 53.232 381.793 51.552V47.2H380.833C379.889 47.296 379.889 45.696 380.833 45.792ZM395.268 45.632C397.524 45.632 398.868 46.976 398.868 49.328V53.28C398.868 53.744 398.548 54.08 398.084 54.08C397.62 54.08 397.316 53.744 397.316 53.28V53.248C396.676 53.856 395.812 54.16 394.708 54.16C392.74 54.16 391.508 53.104 391.508 51.648C391.508 50.912 391.796 50.304 392.388 49.808C392.98 49.312 393.78 49.072 394.756 49.072C395.732 49.072 396.516 49.328 397.108 49.824V49.312C397.108 47.888 396.244 47.104 394.948 47.104C394.324 47.104 393.748 47.28 393.22 47.616C393.076 47.696 392.916 47.744 392.772 47.744C392.372 47.744 392.068 47.456 392.068 47.056C392.068 46.8 392.212 46.576 392.484 46.4C393.188 45.888 394.116 45.632 395.268 45.632ZM395.188 52.976C396.452 52.976 397.188 52.4 397.188 51.584C397.188 50.768 396.452 50.176 395.188 50.176C394.02 50.176 393.268 50.8 393.268 51.584C393.268 52.368 394.02 52.976 395.188 52.976ZM404.777 45.632C405.785 45.632 406.633 45.904 407.337 46.464C407.641 46.672 407.801 46.928 407.801 47.232C407.801 47.696 407.449 48.048 406.985 48.048C406.825 48.048 406.649 47.984 406.441 47.84C405.929 47.44 405.369 47.248 404.745 47.248C403.993 47.248 403.369 47.504 402.873 48.016C402.377 48.512 402.121 49.136 402.121 49.888C402.121 50.64 402.377 51.28 402.873 51.792C403.369 52.288 403.993 52.544 404.745 52.544C405.433 52.544 406.025 52.32 406.537 51.872C406.745 51.728 406.921 51.664 407.065 51.664C407.529 51.664 407.849 52 407.849 52.464C407.849 52.736 407.721 52.96 407.481 53.168C406.729 53.824 405.801 54.16 404.713 54.16C403.465 54.16 402.425 53.76 401.593 52.944C400.777 52.128 400.361 51.12 400.361 49.92C400.361 48.72 400.777 47.696 401.625 46.88C402.473 46.048 403.529 45.632 404.777 45.632ZM409.131 45.792H410.091V44.544C410.091 44.032 410.459 43.68 410.971 43.68C411.499 43.68 411.851 44.032 411.851 44.544V45.792H414.107C415.035 45.696 415.035 47.296 414.107 47.2H411.851V51.152C411.851 52.08 412.267 52.544 413.099 52.544C413.499 52.544 413.979 52.432 414.027 52.432C414.475 52.432 414.795 52.704 414.795 53.152C414.795 53.536 414.587 53.808 414.171 53.952C413.803 54.096 413.307 54.16 412.699 54.16C411.083 54.16 410.091 53.232 410.091 51.552V47.2H409.131C408.187 47.296 408.187 45.696 409.131 45.792ZM417.153 44.56C416.513 44.56 416.033 44.096 416.033 43.472C416.033 42.848 416.513 42.4 417.153 42.4C417.809 42.4 418.273 42.848 418.273 43.472C418.273 44.096 417.809 44.56 417.153 44.56ZM418.049 46.592V53.168C418.049 53.696 417.681 54.08 417.153 54.08C416.625 54.08 416.257 53.696 416.257 53.168V46.592C416.257 46.08 416.625 45.712 417.153 45.712C417.681 45.712 418.049 46.08 418.049 46.592ZM420.045 46.272H421.005V45.52C421.005 43.68 422.061 42.64 423.805 42.64C424.317 42.64 424.765 42.704 425.133 42.816C425.565 42.96 425.789 43.184 425.789 43.52C425.789 43.92 425.485 44.208 425.085 44.208C425.005 44.208 424.573 44.096 424.253 44.096C423.293 44.096 422.765 44.624 422.765 45.632V46.272H424.941C425.869 46.208 425.869 47.744 424.941 47.68H422.765V53.2C422.765 53.712 422.413 54.08 421.885 54.08C421.373 54.08 421.005 53.712 421.005 53.2V47.68H420.045C419.101 47.776 419.101 46.176 420.045 46.272ZM425.514 53.824C425.066 53.36 425.066 52.624 425.514 52.176C425.978 51.728 426.714 51.728 427.162 52.176C427.61 52.624 427.61 53.36 427.162 53.824C426.714 54.272 425.978 54.272 425.514 53.824ZM433.608 53.072V43.712C433.608 43.184 434.008 42.8 434.536 42.8H437.4C439.192 42.8 440.664 43.328 441.8 44.384C442.952 45.44 443.528 46.768 443.528 48.368C443.528 49.968 442.936 51.312 441.768 52.384C440.6 53.456 439.128 54 437.336 54H434.536C433.976 54 433.608 53.632 433.608 53.072ZM435.448 44.4V52.4H437.448C438.68 52.4 439.688 52.016 440.488 51.264C441.288 50.496 441.688 49.536 441.688 48.4C441.688 47.248 441.288 46.288 440.488 45.536C439.704 44.784 438.68 44.4 437.448 44.4H435.448ZM449.188 45.632C450.276 45.632 451.22 46.016 452.004 46.768C452.788 47.52 453.188 48.368 453.188 49.344C453.188 49.856 452.916 50.16 452.42 50.16H446.596C446.676 51.632 447.796 52.624 449.268 52.624C449.62 52.624 449.94 52.56 450.244 52.448C450.868 52.208 451.06 52.048 451.46 51.664C451.636 51.52 451.812 51.456 451.972 51.456C452.404 51.456 452.692 51.76 452.692 52.16C452.692 52.4 452.564 52.624 452.324 52.848C451.508 53.728 450.452 54.16 449.156 54.16C447.908 54.16 446.868 53.76 446.036 52.944C445.22 52.128 444.804 51.12 444.804 49.92C444.804 48.72 445.22 47.696 446.068 46.88C446.916 46.048 447.956 45.632 449.188 45.632ZM446.612 49.04H451.508C451.412 48.448 451.14 47.968 450.692 47.568C450.244 47.168 449.732 46.96 449.156 46.96C447.876 46.96 446.852 47.824 446.612 49.04ZM454.029 52.688C454.029 52.288 454.301 52.016 454.701 52.016C454.861 52.016 455.021 52.064 455.165 52.16C455.821 52.592 456.509 52.816 457.197 52.816C458.077 52.816 458.605 52.384 458.605 51.824C458.605 51.2 458.189 50.784 456.653 50.352C455.165 49.904 454.333 49.056 454.333 47.968C454.333 46.672 455.469 45.632 457.341 45.632C458.189 45.632 458.957 45.84 459.677 46.272C459.981 46.464 460.125 46.688 460.125 46.944C460.125 47.344 459.853 47.616 459.469 47.616C459.325 47.616 459.149 47.568 458.957 47.456C458.461 47.136 457.949 46.976 457.389 46.976C456.557 46.976 456.077 47.376 456.077 47.84C456.077 48.368 456.477 48.768 457.773 49.136C459.485 49.632 460.333 50.464 460.333 51.648C460.333 53.104 459.149 54.16 457.181 54.16C456.077 54.16 455.165 53.888 454.445 53.36C454.173 53.152 454.029 52.928 454.029 52.688ZM469.896 45.632C470.904 45.632 471.752 45.904 472.456 46.464C472.76 46.672 472.92 46.928 472.92 47.232C472.92 47.696 472.568 48.048 472.104 48.048C471.944 48.048 471.768 47.984 471.56 47.84C471.048 47.44 470.488 47.248 469.864 47.248C469.112 47.248 468.488 47.504 467.992 48.016C467.496 48.512 467.24 49.136 467.24 49.888C467.24 50.64 467.496 51.28 467.992 51.792C468.488 52.288 469.112 52.544 469.864 52.544C470.552 52.544 471.144 52.32 471.656 51.872C471.864 51.728 472.04 51.664 472.184 51.664C472.648 51.664 472.968 52 472.968 52.464C472.968 52.736 472.84 52.96 472.6 53.168C471.848 53.824 470.92 54.16 469.832 54.16C468.584 54.16 467.544 53.76 466.712 52.944C465.896 52.128 465.48 51.12 465.48 49.92C465.48 48.72 465.896 47.696 466.744 46.88C467.592 46.048 468.648 45.632 469.896 45.632ZM478.937 45.632C479.849 45.632 480.601 45.936 481.193 46.56C481.785 47.184 482.089 48.048 482.089 49.184V53.2C482.089 53.712 481.737 54.08 481.209 54.08C480.697 54.08 480.329 53.712 480.329 53.2V49.744C480.329 48.08 479.513 47.248 478.361 47.248C477.097 47.248 476.185 48.08 476.169 49.76V53.2C476.169 53.712 475.817 54.08 475.289 54.08C474.777 54.08 474.409 53.712 474.409 53.2V43.584C474.409 43.072 474.777 42.72 475.289 42.72C475.817 42.72 476.169 43.072 476.169 43.584V47.136C476.761 46.128 477.673 45.632 478.937 45.632ZM487.422 45.632C489.678 45.632 491.022 46.976 491.022 49.328V53.28C491.022 53.744 490.702 54.08 490.238 54.08C489.774 54.08 489.47 53.744 489.47 53.28V53.248C488.83 53.856 487.966 54.16 486.862 54.16C484.894 54.16 483.662 53.104 483.662 51.648C483.662 50.912 483.95 50.304 484.542 49.808C485.134 49.312 485.934 49.072 486.91 49.072C487.886 49.072 488.67 49.328 489.262 49.824V49.312C489.262 47.888 488.398 47.104 487.102 47.104C486.478 47.104 485.902 47.28 485.374 47.616C485.23 47.696 485.07 47.744 484.926 47.744C484.526 47.744 484.222 47.456 484.222 47.056C484.222 46.8 484.366 46.576 484.638 46.4C485.342 45.888 486.27 45.632 487.422 45.632ZM487.342 52.976C488.606 52.976 489.342 52.4 489.342 51.584C489.342 50.768 488.606 50.176 487.342 50.176C486.174 50.176 485.422 50.8 485.422 51.584C485.422 52.368 486.174 52.976 487.342 52.976ZM497.524 45.632C498.436 45.632 499.188 45.936 499.78 46.56C500.372 47.184 500.676 48.048 500.676 49.184V53.2C500.676 53.712 500.324 54.08 499.796 54.08C499.284 54.08 498.916 53.712 498.916 53.2V49.744C498.916 48.08 498.1 47.248 496.948 47.248C495.668 47.248 494.756 48.112 494.756 49.904V53.2C494.756 53.712 494.404 54.08 493.876 54.08C493.364 54.08 492.996 53.712 492.996 53.2V46.528C492.884 45.456 494.74 45.456 494.628 46.528V47.264C495.204 46.192 496.292 45.632 497.524 45.632ZM510.856 46.528V52C510.856 53.44 510.456 54.592 509.64 55.44C508.824 56.288 507.704 56.72 506.264 56.72C504.872 56.72 503.688 56.4 502.728 55.776C502.424 55.6 502.28 55.36 502.28 55.088C502.28 54.656 502.584 54.352 502.984 54.352C503.144 54.352 503.32 54.416 503.512 54.528C504.328 54.992 505.208 55.232 506.136 55.232C508.008 55.232 509.096 54.208 509.096 52.368V52.048C508.44 52.928 507.48 53.36 506.232 53.36C505.096 53.36 504.136 52.992 503.352 52.256C502.568 51.504 502.168 50.592 502.168 49.52C502.168 48.416 502.568 47.504 503.352 46.752C504.136 46 505.128 45.632 506.296 45.632C507.464 45.632 508.552 46.144 509.24 46.992V46.528C509.144 45.456 510.936 45.456 510.856 46.528ZM509.176 49.536C509.176 48.848 508.92 48.288 508.424 47.824C507.928 47.36 507.304 47.12 506.552 47.12C505.8 47.12 505.176 47.36 504.68 47.824C504.184 48.288 503.928 48.848 503.928 49.536C503.928 50.208 504.184 50.784 504.68 51.248C505.176 51.712 505.8 51.936 506.552 51.936C507.304 51.936 507.928 51.712 508.424 51.248C508.92 50.784 509.176 50.208 509.176 49.536ZM516.845 45.632C517.933 45.632 518.877 46.016 519.661 46.768C520.445 47.52 520.845 48.368 520.845 49.344C520.845 49.856 520.573 50.16 520.077 50.16H514.253C514.333 51.632 515.453 52.624 516.925 52.624C517.277 52.624 517.597 52.56 517.901 52.448C518.525 52.208 518.717 52.048 519.117 51.664C519.293 51.52 519.469 51.456 519.629 51.456C520.061 51.456 520.349 51.76 520.349 52.16C520.349 52.4 520.221 52.624 519.981 52.848C519.165 53.728 518.109 54.16 516.813 54.16C515.565 54.16 514.525 53.76 513.693 52.944C512.877 52.128 512.461 51.12 512.461 49.92C512.461 48.72 512.877 47.696 513.725 46.88C514.573 46.048 515.613 45.632 516.845 45.632ZM514.269 49.04H519.165C519.069 48.448 518.797 47.968 518.349 47.568C517.901 47.168 517.389 46.96 516.813 46.96C515.533 46.96 514.509 47.824 514.269 49.04ZM532.614 45.632C533.494 45.632 534.23 45.936 534.806 46.544C535.398 47.152 535.686 48.016 535.686 49.136V53.2C535.686 53.712 535.334 54.08 534.806 54.08C534.294 54.08 533.926 53.712 533.926 53.2V49.712C533.926 48.064 533.142 47.248 532.038 47.248C530.838 47.248 529.942 48.032 529.926 49.696V53.2C529.926 53.712 529.574 54.08 529.046 54.08C528.534 54.08 528.166 53.712 528.166 53.2V49.712C528.166 48.064 527.382 47.248 526.278 47.248C525.078 47.248 524.182 48.032 524.166 49.696V53.2C524.166 53.712 523.814 54.08 523.286 54.08C522.774 54.08 522.406 53.712 522.406 53.2V46.528C522.294 45.456 524.15 45.456 524.038 46.528V47.232C524.598 46.192 525.654 45.632 526.854 45.632C528.134 45.632 529.19 46.32 529.654 47.552C530.166 46.288 531.286 45.632 532.614 45.632ZM541.557 45.632C542.645 45.632 543.589 46.016 544.373 46.768C545.157 47.52 545.557 48.368 545.557 49.344C545.557 49.856 545.285 50.16 544.789 50.16H538.965C539.045 51.632 540.165 52.624 541.637 52.624C541.989 52.624 542.309 52.56 542.613 52.448C543.237 52.208 543.429 52.048 543.829 51.664C544.005 51.52 544.181 51.456 544.341 51.456C544.773 51.456 545.061 51.76 545.061 52.16C545.061 52.4 544.933 52.624 544.693 52.848C543.877 53.728 542.821 54.16 541.525 54.16C540.277 54.16 539.237 53.76 538.405 52.944C537.589 52.128 537.173 51.12 537.173 49.92C537.173 48.72 537.589 47.696 538.437 46.88C539.285 46.048 540.325 45.632 541.557 45.632ZM538.981 49.04H543.877C543.781 48.448 543.509 47.968 543.061 47.568C542.613 47.168 542.101 46.96 541.525 46.96C540.245 46.96 539.221 47.824 538.981 49.04ZM551.645 45.632C552.557 45.632 553.309 45.936 553.901 46.56C554.493 47.184 554.797 48.048 554.797 49.184V53.2C554.797 53.712 554.445 54.08 553.917 54.08C553.405 54.08 553.037 53.712 553.037 53.2V49.744C553.037 48.08 552.221 47.248 551.069 47.248C549.789 47.248 548.877 48.112 548.877 49.904V53.2C548.877 53.712 548.525 54.08 547.997 54.08C547.485 54.08 547.117 53.712 547.117 53.2V46.528C547.005 45.456 548.861 45.456 548.749 46.528V47.264C549.325 46.192 550.413 45.632 551.645 45.632ZM556.297 45.792H557.257V44.544C557.257 44.032 557.625 43.68 558.137 43.68C558.665 43.68 559.017 44.032 559.017 44.544V45.792H561.273C562.201 45.696 562.201 47.296 561.273 47.2H559.017V51.152C559.017 52.08 559.433 52.544 560.265 52.544C560.665 52.544 561.145 52.432 561.193 52.432C561.641 52.432 561.961 52.704 561.961 53.152C561.961 53.536 561.753 53.808 561.337 53.952C560.969 54.096 560.473 54.16 559.865 54.16C558.249 54.16 557.257 53.232 557.257 51.552V47.2H556.297C555.353 47.296 555.353 45.696 556.297 45.792ZM562.624 52.688C562.624 52.288 562.896 52.016 563.296 52.016C563.456 52.016 563.616 52.064 563.76 52.16C564.416 52.592 565.104 52.816 565.792 52.816C566.672 52.816 567.2 52.384 567.2 51.824C567.2 51.2 566.784 50.784 565.248 50.352C563.76 49.904 562.928 49.056 562.928 47.968C562.928 46.672 564.064 45.632 565.936 45.632C566.784 45.632 567.552 45.84 568.272 46.272C568.576 46.464 568.72 46.688 568.72 46.944C568.72 47.344 568.448 47.616 568.064 47.616C567.92 47.616 567.744 47.568 567.552 47.456C567.056 47.136 566.544 46.976 565.984 46.976C565.152 46.976 564.672 47.376 564.672 47.84C564.672 48.368 565.072 48.768 566.368 49.136C568.08 49.632 568.928 50.464 568.928 51.648C568.928 53.104 567.744 54.16 565.776 54.16C564.672 54.16 563.76 53.888 563.04 53.36C562.768 53.152 562.624 52.928 562.624 52.688ZM82.328 64.632C83.208 64.632 83.944 64.936 84.52 65.544C85.112 66.152 85.4 67.016 85.4 68.136V72.2C85.4 72.712 85.048 73.08 84.52 73.08C84.008 73.08 83.64 72.712 83.64 72.2V68.712C83.64 67.064 82.856 66.248 81.752 66.248C80.552 66.248 79.656 67.032 79.64 68.696V72.2C79.64 72.712 79.288 73.08 78.76 73.08C78.248 73.08 77.88 72.712 77.88 72.2V68.712C77.88 67.064 77.096 66.248 75.992 66.248C74.792 66.248 73.896 67.032 73.88 68.696V72.2C73.88 72.712 73.528 73.08 73 73.08C72.488 73.08 72.12 72.712 72.12 72.2V65.528C72.008 64.456 73.864 64.456 73.752 65.528V66.232C74.312 65.192 75.368 64.632 76.568 64.632C77.848 64.632 78.904 65.32 79.368 66.552C79.88 65.288 81 64.632 82.328 64.632ZM90.7263 64.632C92.9823 64.632 94.3263 65.976 94.3263 68.328V72.28C94.3263 72.744 94.0063 73.08 93.5423 73.08C93.0783 73.08 92.7743 72.744 92.7743 72.28V72.248C92.1343 72.856 91.2703 73.16 90.1663 73.16C88.1983 73.16 86.9663 72.104 86.9663 70.648C86.9663 69.912 87.2543 69.304 87.8463 68.808C88.4383 68.312 89.2383 68.072 90.2143 68.072C91.1903 68.072 91.9743 68.328 92.5663 68.824V68.312C92.5663 66.888 91.7023 66.104 90.4063 66.104C89.7823 66.104 89.2063 66.28 88.6783 66.616C88.5343 66.696 88.3743 66.744 88.2303 66.744C87.8303 66.744 87.5263 66.456 87.5263 66.056C87.5263 65.8 87.6703 65.576 87.9423 65.4C88.6463 64.888 89.5743 64.632 90.7263 64.632ZM90.6463 71.976C91.9103 71.976 92.6463 71.4 92.6463 70.584C92.6463 69.768 91.9103 69.176 90.6463 69.176C89.4783 69.176 88.7263 69.8 88.7263 70.584C88.7263 71.368 89.4783 71.976 90.6463 71.976ZM97.276 63.56C96.636 63.56 96.156 63.096 96.156 62.472C96.156 61.848 96.636 61.4 97.276 61.4C97.932 61.4 98.396 61.848 98.396 62.472C98.396 63.096 97.932 63.56 97.276 63.56ZM98.172 65.592V72.648C98.172 74.632 97.116 75.72 95.452 75.72C95.18 75.72 94.94 75.688 94.764 75.64C94.284 75.528 94.044 75.256 94.044 74.856C94.044 74.424 94.348 74.136 94.78 74.136C94.828 74.136 95.004 74.184 95.196 74.184C95.98 74.184 96.38 73.72 96.38 72.808V65.592C96.38 65.08 96.748 64.712 97.276 64.712C97.804 64.712 98.172 65.08 98.172 65.592ZM104.232 64.632C105.32 64.632 106.264 65.016 107.048 65.768C107.832 66.52 108.232 67.368 108.232 68.344C108.232 68.856 107.96 69.16 107.464 69.16H101.64C101.72 70.632 102.84 71.624 104.312 71.624C104.664 71.624 104.984 71.56 105.288 71.448C105.912 71.208 106.104 71.048 106.504 70.664C106.68 70.52 106.856 70.456 107.016 70.456C107.448 70.456 107.736 70.76 107.736 71.16C107.736 71.4 107.608 71.624 107.368 71.848C106.552 72.728 105.496 73.16 104.2 73.16C102.952 73.16 101.912 72.76 101.08 71.944C100.264 71.128 99.8475 70.12 99.8475 68.92C99.8475 67.72 100.264 66.696 101.112 65.88C101.96 65.048 103 64.632 104.232 64.632ZM101.656 68.04H106.552C106.456 67.448 106.184 66.968 105.736 66.568C105.288 66.168 104.776 65.96 104.2 65.96C102.92 65.96 101.896 66.824 101.656 68.04ZM116.481 64.712C117.009 64.712 117.361 65.064 117.361 65.592V72.264C117.361 72.728 117.009 73.08 116.545 73.08C116.081 73.08 115.729 72.728 115.729 72.264V71.544C115.153 72.616 114.065 73.16 112.833 73.16C111.921 73.16 111.153 72.856 110.561 72.232C109.969 71.608 109.681 70.728 109.681 69.608V65.592C109.681 65.064 110.049 64.712 110.561 64.712C111.089 64.712 111.441 65.064 111.441 65.592V69.032C111.441 70.712 112.257 71.544 113.409 71.544C114.705 71.544 115.601 70.68 115.601 68.872V65.592C115.601 65.064 115.969 64.712 116.481 64.712ZM119.445 72.2V65.48C119.349 64.472 121.109 64.472 121.013 65.48L121.045 66.504C121.573 65.304 122.517 64.632 123.669 64.632C124.197 64.632 124.581 65 124.581 65.512C124.581 66.04 124.197 66.424 123.669 66.424C122.133 66.424 121.205 67.416 121.205 69.336V72.2C121.205 72.712 120.853 73.08 120.325 73.08C119.813 73.08 119.445 72.712 119.445 72.2ZM124.987 71.688C124.987 71.288 125.259 71.016 125.659 71.016C125.819 71.016 125.979 71.064 126.123 71.16C126.779 71.592 127.467 71.816 128.155 71.816C129.035 71.816 129.563 71.384 129.563 70.824C129.563 70.2 129.147 69.784 127.611 69.352C126.123 68.904 125.291 68.056 125.291 66.968C125.291 65.672 126.427 64.632 128.299 64.632C129.147 64.632 129.915 64.84 130.635 65.272C130.939 65.464 131.083 65.688 131.083 65.944C131.083 66.344 130.811 66.616 130.427 66.616C130.283 66.616 130.107 66.568 129.915 66.456C129.419 66.136 128.907 65.976 128.347 65.976C127.515 65.976 127.035 66.376 127.035 66.84C127.035 67.368 127.435 67.768 128.731 68.136C130.443 68.632 131.291 69.464 131.291 70.648C131.291 72.104 130.107 73.16 128.139 73.16C127.035 73.16 126.123 72.888 125.403 72.36C125.131 72.152 124.987 71.928 124.987 71.688ZM141.574 64.632C142.678 64.632 143.638 65.032 144.422 65.848C145.206 66.664 145.606 67.656 145.606 68.856C145.606 70.056 145.206 71.064 144.39 71.912C143.59 72.744 142.63 73.16 141.51 73.16C140.31 73.16 139.366 72.696 138.678 71.752V74.776C138.678 75.288 138.326 75.64 137.798 75.64C137.286 75.64 136.918 75.288 136.918 74.776V65.528C136.918 65.032 137.238 64.712 137.734 64.712C138.198 64.712 138.534 65.032 138.534 65.528V66.248C139.254 65.176 140.278 64.632 141.574 64.632ZM143.846 68.888C143.846 68.136 143.59 67.512 143.094 67.016C142.598 66.504 141.974 66.248 141.222 66.248C140.47 66.248 139.846 66.504 139.35 67.016C138.854 67.512 138.598 68.136 138.598 68.888C138.598 69.64 138.854 70.28 139.35 70.792C139.846 71.288 140.47 71.544 141.222 71.544C141.974 71.544 142.598 71.288 143.094 70.792C143.59 70.28 143.846 69.64 143.846 68.888ZM151.115 64.632C152.203 64.632 153.147 65.016 153.931 65.768C154.715 66.52 155.115 67.368 155.115 68.344C155.115 68.856 154.843 69.16 154.347 69.16H148.523C148.603 70.632 149.723 71.624 151.195 71.624C151.547 71.624 151.867 71.56 152.171 71.448C152.795 71.208 152.987 71.048 153.387 70.664C153.563 70.52 153.739 70.456 153.899 70.456C154.331 70.456 154.619 70.76 154.619 71.16C154.619 71.4 154.491 71.624 154.251 71.848C153.435 72.728 152.379 73.16 151.083 73.16C149.835 73.16 148.795 72.76 147.963 71.944C147.147 71.128 146.731 70.12 146.731 68.92C146.731 67.72 147.147 66.696 147.995 65.88C148.843 65.048 149.883 64.632 151.115 64.632ZM148.539 68.04H153.435C153.339 67.448 153.067 66.968 152.619 66.568C152.171 66.168 151.659 65.96 151.083 65.96C149.803 65.96 148.779 66.824 148.539 68.04ZM163.364 64.712C163.892 64.712 164.244 65.064 164.244 65.592V72.264C164.244 72.728 163.892 73.08 163.428 73.08C162.964 73.08 162.612 72.728 162.612 72.264V71.544C162.036 72.616 160.948 73.16 159.716 73.16C158.804 73.16 158.036 72.856 157.444 72.232C156.852 71.608 156.564 70.728 156.564 69.608V65.592C156.564 65.064 156.932 64.712 157.444 64.712C157.972 64.712 158.324 65.064 158.324 65.592V69.032C158.324 70.712 159.14 71.544 160.292 71.544C161.588 71.544 162.484 70.68 162.484 68.872V65.592C162.484 65.064 162.852 64.712 163.364 64.712ZM165.449 65.592C165.449 65.064 165.817 64.712 166.345 64.712C166.745 64.712 167.033 64.936 167.209 65.4L169.417 70.776L171.625 65.368C171.785 64.936 172.073 64.712 172.489 64.712C172.953 64.712 173.321 65.08 173.321 65.544C173.321 65.688 173.289 65.832 173.225 65.976L170.569 72.152C170.313 72.776 169.913 73.08 169.369 73.08C168.841 73.08 168.441 72.776 168.185 72.152L165.561 66.056C165.481 65.912 165.449 65.752 165.449 65.592ZM178.12 64.632C179.208 64.632 180.152 65.016 180.936 65.768C181.72 66.52 182.12 67.368 182.12 68.344C182.12 68.856 181.848 69.16 181.352 69.16H175.528C175.608 70.632 176.728 71.624 178.2 71.624C178.552 71.624 178.872 71.56 179.176 71.448C179.8 71.208 179.992 71.048 180.392 70.664C180.568 70.52 180.744 70.456 180.904 70.456C181.336 70.456 181.624 70.76 181.624 71.16C181.624 71.4 181.496 71.624 181.256 71.848C180.44 72.728 179.384 73.16 178.088 73.16C176.84 73.16 175.8 72.76 174.968 71.944C174.152 71.128 173.736 70.12 173.736 68.92C173.736 67.72 174.152 66.696 175 65.88C175.848 65.048 176.888 64.632 178.12 64.632ZM175.544 68.04H180.44C180.344 67.448 180.072 66.968 179.624 66.568C179.176 66.168 178.664 65.96 178.088 65.96C176.808 65.96 175.784 66.824 175.544 68.04ZM188.209 64.632C189.121 64.632 189.873 64.936 190.465 65.56C191.057 66.184 191.361 67.048 191.361 68.184V72.2C191.361 72.712 191.009 73.08 190.481 73.08C189.969 73.08 189.601 72.712 189.601 72.2V68.744C189.601 67.08 188.785 66.248 187.633 66.248C186.353 66.248 185.441 67.112 185.441 68.904V72.2C185.441 72.712 185.089 73.08 184.561 73.08C184.049 73.08 183.681 72.712 183.681 72.2V65.528C183.569 64.456 185.425 64.456 185.313 65.528V66.264C185.889 65.192 186.977 64.632 188.209 64.632ZM192.861 64.792H193.821V63.544C193.821 63.032 194.189 62.68 194.701 62.68C195.229 62.68 195.581 63.032 195.581 63.544V64.792H197.837C198.765 64.696 198.765 66.296 197.837 66.2H195.581V70.152C195.581 71.08 195.997 71.544 196.829 71.544C197.229 71.544 197.709 71.432 197.757 71.432C198.205 71.432 198.525 71.704 198.525 72.152C198.525 72.536 198.317 72.808 197.901 72.952C197.533 73.096 197.037 73.16 196.429 73.16C194.813 73.16 193.821 72.232 193.821 70.552V66.2H192.861C191.917 66.296 191.917 64.696 192.861 64.792ZM203.215 71.688C203.215 71.288 203.487 71.016 203.887 71.016C204.047 71.016 204.207 71.064 204.351 71.16C205.007 71.592 205.695 71.816 206.383 71.816C207.263 71.816 207.791 71.384 207.791 70.824C207.791 70.2 207.375 69.784 205.839 69.352C204.351 68.904 203.519 68.056 203.519 66.968C203.519 65.672 204.655 64.632 206.527 64.632C207.375 64.632 208.143 64.84 208.863 65.272C209.167 65.464 209.311 65.688 209.311 65.944C209.311 66.344 209.039 66.616 208.655 66.616C208.511 66.616 208.335 66.568 208.143 66.456C207.647 66.136 207.135 65.976 206.575 65.976C205.743 65.976 205.263 66.376 205.263 66.84C205.263 67.368 205.663 67.768 206.959 68.136C208.671 68.632 209.519 69.464 209.519 70.648C209.519 72.104 208.335 73.16 206.367 73.16C205.263 73.16 204.351 72.888 203.631 72.36C203.359 72.152 203.215 71.928 203.215 71.688ZM217.807 64.712C218.335 64.712 218.687 65.064 218.687 65.592V72.264C218.687 72.728 218.335 73.08 217.871 73.08C217.407 73.08 217.055 72.728 217.055 72.264V71.544C216.479 72.616 215.391 73.16 214.159 73.16C213.247 73.16 212.479 72.856 211.887 72.232C211.295 71.608 211.007 70.728 211.007 69.608V65.592C211.007 65.064 211.375 64.712 211.887 64.712C212.415 64.712 212.767 65.064 212.767 65.592V69.032C212.767 70.712 213.583 71.544 214.735 71.544C216.031 71.544 216.927 70.68 216.927 68.872V65.592C216.927 65.064 217.295 64.712 217.807 64.712ZM220.771 72.2V65.48C220.675 64.472 222.435 64.472 222.339 65.48L222.371 66.504C222.899 65.304 223.843 64.632 224.995 64.632C225.523 64.632 225.907 65 225.907 65.512C225.907 66.04 225.523 66.424 224.995 66.424C223.459 66.424 222.531 67.416 222.531 69.336V72.2C222.531 72.712 222.179 73.08 221.651 73.08C221.139 73.08 220.771 72.712 220.771 72.2ZM226.388 65.592C226.388 65.064 226.756 64.712 227.284 64.712C227.684 64.712 227.972 64.936 228.148 65.4L230.356 70.776L232.564 65.368C232.724 64.936 233.012 64.712 233.428 64.712C233.892 64.712 234.26 65.08 234.26 65.544C234.26 65.688 234.228 65.832 234.164 65.976L231.508 72.152C231.252 72.776 230.852 73.08 230.308 73.08C229.78 73.08 229.38 72.776 229.124 72.152L226.5 66.056C226.42 65.912 226.388 65.752 226.388 65.592ZM239.058 64.632C240.146 64.632 241.09 65.016 241.874 65.768C242.658 66.52 243.058 67.368 243.058 68.344C243.058 68.856 242.786 69.16 242.29 69.16H236.466C236.546 70.632 237.666 71.624 239.138 71.624C239.49 71.624 239.81 71.56 240.114 71.448C240.738 71.208 240.93 71.048 241.33 70.664C241.506 70.52 241.682 70.456 241.842 70.456C242.274 70.456 242.562 70.76 242.562 71.16C242.562 71.4 242.434 71.624 242.194 71.848C241.378 72.728 240.322 73.16 239.026 73.16C237.778 73.16 236.738 72.76 235.906 71.944C235.09 71.128 234.674 70.12 234.674 68.92C234.674 67.72 235.09 66.696 235.938 65.88C236.786 65.048 237.826 64.632 239.058 64.632ZM236.482 68.04H241.378C241.282 67.448 241.01 66.968 240.562 66.568C240.114 66.168 239.602 65.96 239.026 65.96C237.746 65.96 236.722 66.824 236.482 68.04ZM249.147 64.632C250.059 64.632 250.811 64.936 251.403 65.56C251.995 66.184 252.299 67.048 252.299 68.184V72.2C252.299 72.712 251.947 73.08 251.419 73.08C250.907 73.08 250.539 72.712 250.539 72.2V68.744C250.539 67.08 249.723 66.248 248.571 66.248C247.291 66.248 246.379 67.112 246.379 68.904V72.2C246.379 72.712 246.027 73.08 245.499 73.08C244.987 73.08 244.619 72.712 244.619 72.2V65.528C244.507 64.456 246.363 64.456 246.251 65.528V66.264C246.827 65.192 247.915 64.632 249.147 64.632ZM255.248 63.56C254.608 63.56 254.128 63.096 254.128 62.472C254.128 61.848 254.608 61.4 255.248 61.4C255.904 61.4 256.368 61.848 256.368 62.472C256.368 63.096 255.904 63.56 255.248 63.56ZM256.144 65.592V72.168C256.144 72.696 255.776 73.08 255.248 73.08C254.72 73.08 254.352 72.696 254.352 72.168V65.592C254.352 65.08 254.72 64.712 255.248 64.712C255.776 64.712 256.144 65.08 256.144 65.592ZM258.299 72.2V65.48C258.203 64.472 259.963 64.472 259.867 65.48L259.899 66.504C260.427 65.304 261.371 64.632 262.523 64.632C263.051 64.632 263.435 65 263.435 65.512C263.435 66.04 263.051 66.424 262.523 66.424C260.987 66.424 260.059 67.416 260.059 69.336V72.2C260.059 72.712 259.707 73.08 259.179 73.08C258.667 73.08 258.299 72.712 258.299 72.2ZM271.949 64.632C274.205 64.632 275.549 65.976 275.549 68.328V72.28C275.549 72.744 275.229 73.08 274.765 73.08C274.301 73.08 273.997 72.744 273.997 72.28V72.248C273.357 72.856 272.493 73.16 271.389 73.16C269.421 73.16 268.189 72.104 268.189 70.648C268.189 69.912 268.477 69.304 269.069 68.808C269.661 68.312 270.461 68.072 271.437 68.072C272.413 68.072 273.197 68.328 273.789 68.824V68.312C273.789 66.888 272.925 66.104 271.629 66.104C271.005 66.104 270.429 66.28 269.901 66.616C269.757 66.696 269.597 66.744 269.453 66.744C269.053 66.744 268.749 66.456 268.749 66.056C268.749 65.8 268.893 65.576 269.165 65.4C269.869 64.888 270.797 64.632 271.949 64.632ZM271.869 71.976C273.133 71.976 273.869 71.4 273.869 70.584C273.869 69.768 273.133 69.176 271.869 69.176C270.701 69.176 269.949 69.8 269.949 70.584C269.949 71.368 270.701 71.976 271.869 71.976ZM284.21 64.712C284.738 64.712 285.09 65.064 285.09 65.592V72.264C285.09 72.728 284.738 73.08 284.274 73.08C283.81 73.08 283.458 72.728 283.458 72.264V71.544C282.882 72.616 281.794 73.16 280.562 73.16C279.65 73.16 278.882 72.856 278.29 72.232C277.698 71.608 277.41 70.728 277.41 69.608V65.592C277.41 65.064 277.778 64.712 278.29 64.712C278.818 64.712 279.17 65.064 279.17 65.592V69.032C279.17 70.712 279.986 71.544 281.138 71.544C282.434 71.544 283.33 70.68 283.33 68.872V65.592C283.33 65.064 283.698 64.712 284.21 64.712ZM295.139 64.632C296.147 64.632 296.995 64.904 297.699 65.464C298.003 65.672 298.163 65.928 298.163 66.232C298.163 66.696 297.811 67.048 297.347 67.048C297.187 67.048 297.011 66.984 296.803 66.84C296.291 66.44 295.731 66.248 295.107 66.248C294.355 66.248 293.731 66.504 293.235 67.016C292.739 67.512 292.483 68.136 292.483 68.888C292.483 69.64 292.739 70.28 293.235 70.792C293.731 71.288 294.355 71.544 295.107 71.544C295.795 71.544 296.387 71.32 296.899 70.872C297.107 70.728 297.283 70.664 297.427 70.664C297.891 70.664 298.211 71 298.211 71.464C298.211 71.736 298.083 71.96 297.843 72.168C297.091 72.824 296.163 73.16 295.075 73.16C293.827 73.16 292.787 72.76 291.955 71.944C291.139 71.128 290.723 70.12 290.723 68.92C290.723 67.72 291.139 66.696 291.987 65.88C292.835 65.048 293.891 64.632 295.139 64.632ZM300.091 71.944C299.275 71.128 298.859 70.12 298.859 68.92C298.859 67.72 299.275 66.696 300.123 65.88C300.971 65.048 302.027 64.632 303.275 64.632C304.523 64.632 305.563 65.032 306.379 65.848C307.211 66.648 307.627 67.656 307.627 68.856C307.627 70.056 307.195 71.08 306.347 71.912C305.499 72.744 304.459 73.16 303.211 73.16C301.963 73.16 300.923 72.76 300.091 71.944ZM300.619 68.888C300.619 69.64 300.875 70.28 301.371 70.792C301.867 71.288 302.491 71.544 303.243 71.544C303.995 71.544 304.619 71.288 305.115 70.792C305.611 70.28 305.867 69.64 305.867 68.888C305.867 68.136 305.611 67.512 305.115 67.016C304.619 66.504 303.995 66.248 303.243 66.248C302.491 66.248 301.867 66.504 301.371 67.016C300.875 67.512 300.619 68.136 300.619 68.888ZM315.914 64.712C316.442 64.712 316.794 65.064 316.794 65.592V72.264C316.794 72.728 316.442 73.08 315.978 73.08C315.514 73.08 315.162 72.728 315.162 72.264V71.544C314.586 72.616 313.498 73.16 312.266 73.16C311.354 73.16 310.586 72.856 309.994 72.232C309.402 71.608 309.114 70.728 309.114 69.608V65.592C309.114 65.064 309.482 64.712 309.994 64.712C310.522 64.712 310.874 65.064 310.874 65.592V69.032C310.874 70.712 311.69 71.544 312.842 71.544C314.138 71.544 315.034 70.68 315.034 68.872V65.592C315.034 65.064 315.402 64.712 315.914 64.712ZM318.879 72.2V65.48C318.783 64.472 320.543 64.472 320.447 65.48L320.479 66.504C321.007 65.304 321.951 64.632 323.103 64.632C323.631 64.632 324.015 65 324.015 65.512C324.015 66.04 323.631 66.424 323.103 66.424C321.567 66.424 320.639 67.416 320.639 69.336V72.2C320.639 72.712 320.287 73.08 319.759 73.08C319.247 73.08 318.879 72.712 318.879 72.2ZM324.421 71.688C324.421 71.288 324.693 71.016 325.093 71.016C325.253 71.016 325.413 71.064 325.557 71.16C326.213 71.592 326.901 71.816 327.589 71.816C328.469 71.816 328.997 71.384 328.997 70.824C328.997 70.2 328.581 69.784 327.045 69.352C325.557 68.904 324.725 68.056 324.725 66.968C324.725 65.672 325.861 64.632 327.733 64.632C328.581 64.632 329.349 64.84 330.069 65.272C330.373 65.464 330.517 65.688 330.517 65.944C330.517 66.344 330.245 66.616 329.861 66.616C329.717 66.616 329.541 66.568 329.349 66.456C328.853 66.136 328.341 65.976 327.781 65.976C326.949 65.976 326.469 66.376 326.469 66.84C326.469 67.368 326.869 67.768 328.165 68.136C329.877 68.632 330.725 69.464 330.725 70.648C330.725 72.104 329.541 73.16 327.573 73.16C326.469 73.16 325.557 72.888 324.837 72.36C324.565 72.152 324.421 71.928 324.421 71.688ZM343.68 61.72C344.192 61.72 344.56 62.072 344.56 62.584V72.264C344.56 72.728 344.208 73.08 343.744 73.08C343.28 73.08 342.944 72.76 342.944 72.264V71.544C342.192 72.616 341.168 73.16 339.904 73.16C338.8 73.16 337.84 72.76 337.056 71.944C336.272 71.128 335.872 70.12 335.872 68.92C335.872 67.72 336.272 66.712 337.072 65.88C337.872 65.048 338.832 64.632 339.968 64.632C341.2 64.632 342.144 65.096 342.8 66.04V62.584C342.8 62.072 343.152 61.72 343.68 61.72ZM342.88 68.888C342.88 68.136 342.624 67.512 342.128 67.016C341.632 66.504 341.008 66.248 340.256 66.248C339.504 66.248 338.88 66.504 338.384 67.016C337.888 67.512 337.632 68.136 337.632 68.888C337.632 69.64 337.888 70.28 338.384 70.792C338.88 71.288 339.504 71.544 340.256 71.544C341.008 71.544 341.632 71.288 342.128 70.792C342.624 70.28 342.88 69.64 342.88 68.888ZM350.549 64.632C351.637 64.632 352.581 65.016 353.365 65.768C354.149 66.52 354.549 67.368 354.549 68.344C354.549 68.856 354.277 69.16 353.781 69.16H347.957C348.037 70.632 349.157 71.624 350.629 71.624C350.981 71.624 351.301 71.56 351.605 71.448C352.229 71.208 352.421 71.048 352.821 70.664C352.997 70.52 353.173 70.456 353.333 70.456C353.765 70.456 354.053 70.76 354.053 71.16C354.053 71.4 353.925 71.624 353.685 71.848C352.869 72.728 351.813 73.16 350.517 73.16C349.269 73.16 348.229 72.76 347.397 71.944C346.581 71.128 346.165 70.12 346.165 68.92C346.165 67.72 346.581 66.696 347.429 65.88C348.277 65.048 349.317 64.632 350.549 64.632ZM347.973 68.04H352.869C352.773 67.448 352.501 66.968 352.053 66.568C351.605 66.168 351.093 65.96 350.517 65.96C349.237 65.96 348.213 66.824 347.973 68.04ZM355.39 71.688C355.39 71.288 355.662 71.016 356.062 71.016C356.222 71.016 356.382 71.064 356.526 71.16C357.182 71.592 357.87 71.816 358.558 71.816C359.438 71.816 359.966 71.384 359.966 70.824C359.966 70.2 359.55 69.784 358.014 69.352C356.526 68.904 355.694 68.056 355.694 66.968C355.694 65.672 356.83 64.632 358.702 64.632C359.55 64.632 360.318 64.84 361.038 65.272C361.342 65.464 361.486 65.688 361.486 65.944C361.486 66.344 361.214 66.616 360.83 66.616C360.686 66.616 360.51 66.568 360.318 66.456C359.822 66.136 359.31 65.976 358.75 65.976C357.918 65.976 357.438 66.376 357.438 66.84C357.438 67.368 357.838 67.768 359.134 68.136C360.846 68.632 361.694 69.464 361.694 70.648C361.694 72.104 360.51 73.16 358.542 73.16C357.438 73.16 356.526 72.888 355.806 72.36C355.534 72.152 355.39 71.928 355.39 71.688ZM371.977 64.632C373.081 64.632 374.041 65.032 374.825 65.848C375.609 66.664 376.009 67.656 376.009 68.856C376.009 70.056 375.609 71.064 374.793 71.912C373.993 72.744 373.033 73.16 371.913 73.16C370.713 73.16 369.769 72.696 369.081 71.752V74.776C369.081 75.288 368.729 75.64 368.201 75.64C367.689 75.64 367.321 75.288 367.321 74.776V65.528C367.321 65.032 367.641 64.712 368.137 64.712C368.601 64.712 368.937 65.032 368.937 65.528V66.248C369.657 65.176 370.681 64.632 371.977 64.632ZM374.249 68.888C374.249 68.136 373.993 67.512 373.497 67.016C373.001 66.504 372.377 66.248 371.625 66.248C370.873 66.248 370.249 66.504 369.753 67.016C369.257 67.512 369.001 68.136 369.001 68.888C369.001 69.64 369.257 70.28 369.753 70.792C370.249 71.288 370.873 71.544 371.625 71.544C372.377 71.544 373.001 71.288 373.497 70.792C373.993 70.28 374.249 69.64 374.249 68.888ZM377.614 72.2V65.48C377.518 64.472 379.278 64.472 379.182 65.48L379.214 66.504C379.742 65.304 380.686 64.632 381.838 64.632C382.366 64.632 382.75 65 382.75 65.512C382.75 66.04 382.366 66.424 381.838 66.424C380.302 66.424 379.374 67.416 379.374 69.336V72.2C379.374 72.712 379.022 73.08 378.494 73.08C377.982 73.08 377.614 72.712 377.614 72.2ZM384.222 71.944C383.406 71.128 382.99 70.12 382.99 68.92C382.99 67.72 383.406 66.696 384.254 65.88C385.102 65.048 386.158 64.632 387.406 64.632C388.654 64.632 389.694 65.032 390.51 65.848C391.342 66.648 391.758 67.656 391.758 68.856C391.758 70.056 391.326 71.08 390.478 71.912C389.63 72.744 388.59 73.16 387.342 73.16C386.094 73.16 385.054 72.76 384.222 71.944ZM384.75 68.888C384.75 69.64 385.006 70.28 385.502 70.792C385.998 71.288 386.622 71.544 387.374 71.544C388.126 71.544 388.75 71.288 389.246 70.792C389.742 70.28 389.998 69.64 389.998 68.888C389.998 68.136 389.742 67.512 389.246 67.016C388.75 66.504 388.126 66.248 387.374 66.248C386.622 66.248 385.998 66.504 385.502 67.016C385.006 67.512 384.75 68.136 384.75 68.888ZM397.293 64.632C398.301 64.632 399.149 64.904 399.853 65.464C400.157 65.672 400.317 65.928 400.317 66.232C400.317 66.696 399.965 67.048 399.501 67.048C399.341 67.048 399.165 66.984 398.957 66.84C398.445 66.44 397.885 66.248 397.261 66.248C396.509 66.248 395.885 66.504 395.389 67.016C394.893 67.512 394.637 68.136 394.637 68.888C394.637 69.64 394.893 70.28 395.389 70.792C395.885 71.288 396.509 71.544 397.261 71.544C397.949 71.544 398.541 71.32 399.053 70.872C399.261 70.728 399.437 70.664 399.581 70.664C400.045 70.664 400.365 71 400.365 71.464C400.365 71.736 400.237 71.96 399.997 72.168C399.245 72.824 398.317 73.16 397.229 73.16C395.981 73.16 394.941 72.76 394.109 71.944C393.293 71.128 392.877 70.12 392.877 68.92C392.877 67.72 393.293 66.696 394.141 65.88C394.989 65.048 396.045 64.632 397.293 64.632ZM406.334 64.632C407.246 64.632 407.998 64.936 408.59 65.56C409.182 66.184 409.486 67.048 409.486 68.184V72.2C409.486 72.712 409.134 73.08 408.606 73.08C408.094 73.08 407.726 72.712 407.726 72.2V68.744C407.726 67.08 406.91 66.248 405.758 66.248C404.494 66.248 403.582 67.08 403.566 68.76V72.2C403.566 72.712 403.214 73.08 402.686 73.08C402.174 73.08 401.806 72.712 401.806 72.2V62.584C401.806 62.072 402.174 61.72 402.686 61.72C403.214 61.72 403.566 62.072 403.566 62.584V66.136C404.158 65.128 405.07 64.632 406.334 64.632ZM414.819 64.632C417.075 64.632 418.419 65.976 418.419 68.328V72.28C418.419 72.744 418.099 73.08 417.635 73.08C417.171 73.08 416.867 72.744 416.867 72.28V72.248C416.227 72.856 415.363 73.16 414.259 73.16C412.291 73.16 411.059 72.104 411.059 70.648C411.059 69.912 411.347 69.304 411.939 68.808C412.531 68.312 413.331 68.072 414.307 68.072C415.283 68.072 416.067 68.328 416.659 68.824V68.312C416.659 66.888 415.795 66.104 414.499 66.104C413.875 66.104 413.299 66.28 412.771 66.616C412.627 66.696 412.467 66.744 412.323 66.744C411.923 66.744 411.619 66.456 411.619 66.056C411.619 65.8 411.763 65.576 412.035 65.4C412.739 64.888 413.667 64.632 414.819 64.632ZM414.739 71.976C416.003 71.976 416.739 71.4 416.739 70.584C416.739 69.768 416.003 69.176 414.739 69.176C413.571 69.176 412.819 69.8 412.819 70.584C412.819 71.368 413.571 71.976 414.739 71.976ZM421.368 63.56C420.728 63.56 420.248 63.096 420.248 62.472C420.248 61.848 420.728 61.4 421.368 61.4C422.024 61.4 422.488 61.848 422.488 62.472C422.488 63.096 422.024 63.56 421.368 63.56ZM422.264 65.592V72.168C422.264 72.696 421.896 73.08 421.368 73.08C420.84 73.08 420.472 72.696 420.472 72.168V65.592C420.472 65.08 420.84 64.712 421.368 64.712C421.896 64.712 422.264 65.08 422.264 65.592ZM428.948 64.632C429.86 64.632 430.612 64.936 431.204 65.56C431.796 66.184 432.1 67.048 432.1 68.184V72.2C432.1 72.712 431.748 73.08 431.22 73.08C430.708 73.08 430.34 72.712 430.34 72.2V68.744C430.34 67.08 429.524 66.248 428.372 66.248C427.092 66.248 426.18 67.112 426.18 68.904V72.2C426.18 72.712 425.828 73.08 425.3 73.08C424.788 73.08 424.42 72.712 424.42 72.2V65.528C424.308 64.456 426.164 64.456 426.052 65.528V66.264C426.628 65.192 427.716 64.632 428.948 64.632ZM437.977 64.632C439.065 64.632 440.009 65.016 440.793 65.768C441.577 66.52 441.977 67.368 441.977 68.344C441.977 68.856 441.705 69.16 441.209 69.16H435.385C435.465 70.632 436.585 71.624 438.057 71.624C438.409 71.624 438.729 71.56 439.033 71.448C439.657 71.208 439.849 71.048 440.249 70.664C440.425 70.52 440.601 70.456 440.761 70.456C441.193 70.456 441.481 70.76 441.481 71.16C441.481 71.4 441.353 71.624 441.113 71.848C440.297 72.728 439.241 73.16 437.945 73.16C436.697 73.16 435.657 72.76 434.825 71.944C434.009 71.128 433.593 70.12 433.593 68.92C433.593 67.72 434.009 66.696 434.857 65.88C435.705 65.048 436.745 64.632 437.977 64.632ZM435.401 68.04H440.297C440.201 67.448 439.929 66.968 439.481 66.568C439.033 66.168 438.521 65.96 437.945 65.96C436.665 65.96 435.641 66.824 435.401 68.04ZM442.818 71.688C442.818 71.288 443.09 71.016 443.49 71.016C443.65 71.016 443.81 71.064 443.954 71.16C444.61 71.592 445.298 71.816 445.986 71.816C446.866 71.816 447.394 71.384 447.394 70.824C447.394 70.2 446.978 69.784 445.442 69.352C443.954 68.904 443.122 68.056 443.122 66.968C443.122 65.672 444.258 64.632 446.13 64.632C446.978 64.632 447.746 64.84 448.466 65.272C448.77 65.464 448.914 65.688 448.914 65.944C448.914 66.344 448.642 66.616 448.258 66.616C448.114 66.616 447.938 66.568 447.746 66.456C447.25 66.136 446.738 65.976 446.178 65.976C445.346 65.976 444.866 66.376 444.866 66.84C444.866 67.368 445.266 67.768 446.562 68.136C448.274 68.632 449.122 69.464 449.122 70.648C449.122 72.104 447.938 73.16 445.97 73.16C444.866 73.16 443.954 72.888 443.234 72.36C442.962 72.152 442.818 71.928 442.818 71.688ZM464.957 64.632C465.837 64.632 466.573 64.936 467.149 65.544C467.741 66.152 468.029 67.016 468.029 68.136V72.2C468.029 72.712 467.677 73.08 467.149 73.08C466.637 73.08 466.269 72.712 466.269 72.2V68.712C466.269 67.064 465.485 66.248 464.381 66.248C463.181 66.248 462.285 67.032 462.269 68.696V72.2C462.269 72.712 461.917 73.08 461.389 73.08C460.877 73.08 460.509 72.712 460.509 72.2V68.712C460.509 67.064 459.725 66.248 458.621 66.248C457.421 66.248 456.525 67.032 456.509 68.696V72.2C456.509 72.712 456.157 73.08 455.629 73.08C455.117 73.08 454.749 72.712 454.749 72.2V65.528C454.637 64.456 456.493 64.456 456.381 65.528V66.232C456.941 65.192 457.997 64.632 459.197 64.632C460.477 64.632 461.533 65.32 461.997 66.552C462.509 65.288 463.629 64.632 464.957 64.632ZM470.971 63.56C470.331 63.56 469.851 63.096 469.851 62.472C469.851 61.848 470.331 61.4 470.971 61.4C471.627 61.4 472.091 61.848 472.091 62.472C472.091 63.096 471.627 63.56 470.971 63.56ZM471.867 65.592V72.168C471.867 72.696 471.499 73.08 470.971 73.08C470.443 73.08 470.075 72.696 470.075 72.168V65.592C470.075 65.08 470.443 64.712 470.971 64.712C471.499 64.712 471.867 65.08 471.867 65.592ZM473.302 71.688C473.302 71.288 473.574 71.016 473.974 71.016C474.134 71.016 474.294 71.064 474.438 71.16C475.094 71.592 475.782 71.816 476.47 71.816C477.35 71.816 477.878 71.384 477.878 70.824C477.878 70.2 477.462 69.784 475.926 69.352C474.438 68.904 473.606 68.056 473.606 66.968C473.606 65.672 474.742 64.632 476.614 64.632C477.462 64.632 478.23 64.84 478.95 65.272C479.254 65.464 479.398 65.688 479.398 65.944C479.398 66.344 479.126 66.616 478.742 66.616C478.598 66.616 478.422 66.568 478.23 66.456C477.734 66.136 477.222 65.976 476.662 65.976C475.83 65.976 475.35 66.376 475.35 66.84C475.35 67.368 475.75 67.768 477.046 68.136C478.758 68.632 479.606 69.464 479.606 70.648C479.606 72.104 478.422 73.16 476.454 73.16C475.35 73.16 474.438 72.888 473.718 72.36C473.446 72.152 473.302 71.928 473.302 71.688ZM485.032 64.632C486.12 64.632 487.064 65.016 487.848 65.768C488.632 66.52 489.032 67.368 489.032 68.344C489.032 68.856 488.76 69.16 488.264 69.16H482.44C482.52 70.632 483.64 71.624 485.112 71.624C485.464 71.624 485.784 71.56 486.088 71.448C486.712 71.208 486.904 71.048 487.304 70.664C487.48 70.52 487.656 70.456 487.816 70.456C488.248 70.456 488.536 70.76 488.536 71.16C488.536 71.4 488.408 71.624 488.168 71.848C487.352 72.728 486.296 73.16 485 73.16C483.752 73.16 482.712 72.76 481.88 71.944C481.064 71.128 480.648 70.12 480.648 68.92C480.648 67.72 481.064 66.696 481.912 65.88C482.76 65.048 483.8 64.632 485.032 64.632ZM482.456 68.04H487.352C487.256 67.448 486.984 66.968 486.536 66.568C486.088 66.168 485.576 65.96 485 65.96C483.72 65.96 482.696 66.824 482.456 68.04ZM489.873 71.688C489.873 71.288 490.145 71.016 490.545 71.016C490.705 71.016 490.865 71.064 491.009 71.16C491.665 71.592 492.353 71.816 493.041 71.816C493.921 71.816 494.449 71.384 494.449 70.824C494.449 70.2 494.033 69.784 492.497 69.352C491.009 68.904 490.177 68.056 490.177 66.968C490.177 65.672 491.313 64.632 493.185 64.632C494.033 64.632 494.801 64.84 495.521 65.272C495.825 65.464 495.969 65.688 495.969 65.944C495.969 66.344 495.697 66.616 495.313 66.616C495.169 66.616 494.993 66.568 494.801 66.456C494.305 66.136 493.793 65.976 493.233 65.976C492.401 65.976 491.921 66.376 491.921 66.84C491.921 67.368 492.321 67.768 493.617 68.136C495.329 68.632 496.177 69.464 496.177 70.648C496.177 72.104 494.993 73.16 493.025 73.16C491.921 73.16 491.009 72.888 490.289 72.36C490.017 72.152 489.873 71.928 489.873 71.688ZM505.164 63.688L504.108 62.424C503.868 62.232 503.74 61.992 503.74 61.72C503.74 61.32 504.028 61 504.428 61C504.668 61 504.876 61.112 505.068 61.352L505.98 62.728C506.14 62.904 506.22 63.08 506.22 63.256C506.22 63.624 505.964 63.88 505.596 63.88C505.468 63.88 505.324 63.816 505.164 63.688ZM505.164 64.632C507.42 64.632 508.764 65.976 508.764 68.328V72.28C508.764 72.744 508.444 73.08 507.98 73.08C507.516 73.08 507.212 72.744 507.212 72.28V72.248C506.572 72.856 505.708 73.16 504.604 73.16C502.636 73.16 501.404 72.104 501.404 70.648C501.404 69.912 501.692 69.304 502.284 68.808C502.876 68.312 503.676 68.072 504.652 68.072C505.628 68.072 506.412 68.328 507.004 68.824V68.312C507.004 66.888 506.14 66.104 504.844 66.104C504.22 66.104 503.644 66.28 503.116 66.616C502.972 66.696 502.812 66.744 502.668 66.744C502.268 66.744 501.964 66.456 501.964 66.056C501.964 65.8 502.108 65.576 502.38 65.4C503.084 64.888 504.012 64.632 505.164 64.632ZM505.084 71.976C506.348 71.976 507.084 71.4 507.084 70.584C507.084 69.768 506.348 69.176 505.084 69.176C503.916 69.176 503.164 69.8 503.164 70.584C503.164 71.368 503.916 71.976 505.084 71.976ZM515.742 63.56C515.102 63.56 514.622 63.096 514.622 62.472C514.622 61.848 515.102 61.4 515.742 61.4C516.398 61.4 516.862 61.848 516.862 62.472C516.862 63.096 516.398 63.56 515.742 63.56ZM516.638 65.592V72.648C516.638 74.632 515.582 75.72 513.918 75.72C513.646 75.72 513.406 75.688 513.23 75.64C512.75 75.528 512.51 75.256 512.51 74.856C512.51 74.424 512.814 74.136 513.246 74.136C513.294 74.136 513.47 74.184 513.662 74.184C514.446 74.184 514.846 73.72 514.846 72.808V65.592C514.846 65.08 515.214 64.712 515.742 64.712C516.27 64.712 516.638 65.08 516.638 65.592ZM519.545 71.944C518.729 71.128 518.313 70.12 518.313 68.92C518.313 67.72 518.729 66.696 519.577 65.88C520.425 65.048 521.481 64.632 522.729 64.632C523.977 64.632 525.017 65.032 525.833 65.848C526.665 66.648 527.081 67.656 527.081 68.856C527.081 70.056 526.649 71.08 525.801 71.912C524.953 72.744 523.913 73.16 522.665 73.16C521.417 73.16 520.377 72.76 519.545 71.944ZM520.073 68.888C520.073 69.64 520.329 70.28 520.825 70.792C521.321 71.288 521.945 71.544 522.697 71.544C523.449 71.544 524.073 71.288 524.569 70.792C525.065 70.28 525.321 69.64 525.321 68.888C525.321 68.136 525.065 67.512 524.569 67.016C524.073 66.504 523.449 66.248 522.697 66.248C521.945 66.248 521.321 66.504 520.825 67.016C520.329 67.512 520.073 68.136 520.073 68.888ZM535.368 64.712C535.896 64.712 536.248 65.064 536.248 65.592V72.264C536.248 72.728 535.896 73.08 535.432 73.08C534.968 73.08 534.616 72.728 534.616 72.264V71.544C534.04 72.616 532.952 73.16 531.72 73.16C530.808 73.16 530.04 72.856 529.448 72.232C528.856 71.608 528.568 70.728 528.568 69.608V65.592C528.568 65.064 528.936 64.712 529.448 64.712C529.976 64.712 530.328 65.064 530.328 65.592V69.032C530.328 70.712 531.144 71.544 532.296 71.544C533.592 71.544 534.488 70.68 534.488 68.872V65.592C534.488 65.064 534.856 64.712 535.368 64.712ZM538.332 72.2V65.48C538.236 64.472 539.996 64.472 539.9 65.48L539.932 66.504C540.46 65.304 541.404 64.632 542.556 64.632C543.084 64.632 543.468 65 543.468 65.512C543.468 66.04 543.084 66.424 542.556 66.424C541.02 66.424 540.092 67.416 540.092 69.336V72.2C540.092 72.712 539.74 73.08 539.212 73.08C538.7 73.08 538.332 72.712 538.332 72.2ZM543.173 72.824C542.725 72.36 542.725 71.624 543.173 71.176C543.637 70.728 544.373 70.728 544.821 71.176C545.269 71.624 545.269 72.36 544.821 72.824C544.373 73.272 543.637 73.272 543.173 72.824Z" fill="#FFEAAC"/>
</g>
<defs>
<filter id="filter0_d_313_2079" x="0" y="0" width="606" height="94" filterUnits="userSpaceOnUse" color-interpolation-filters="sRGB">
<feFlood flood-opacity="0" result="BackgroundImageFix"/>
<feColorMatrix in="SourceAlpha" type="matrix" values="0 0 0 0 0 0 0 0 0 0 0 0 0 0 0 0 0 0 127 0" result="hardAlpha"/>
<feOffset dy="1"/>
<feGaussianBlur stdDeviation="1.5"/>
<feComposite in2="hardAlpha" operator="out"/>
<feColorMatrix type="matrix" values="0 0 0 0 0 0 0 0 0 0 0 0 0 0 0 0 0 0 0.15 0"/>
<feBlend mode="normal" in2="BackgroundImageFix" result="effect1_dropShadow_313_2079"/>
<feBlend mode="normal" in="SourceGraphic" in2="effect1_dropShadow_313_2079" result="shape"/>
</filter>
<linearGradient id="paint0_linear_313_2079" x1="303" y1="2" x2="303" y2="90" gradientUnits="userSpaceOnUse">
<stop stop-color="#FCCB37"/>
<stop offset="1" stop-color="#FCCB37" stop-opacity="0.5"/>
</linearGradient>
</defs>
</svg>
